<svg width="48" height="40" viewBox="0 0 48 40" fill="none" xmlns="http://www.w3.org/2000/svg">
<path d="M48 34V38C48 38.5417 47.8021 39.0104 47.4062 39.4062C47.0104 39.8021 46.5417 40 46 40H2C1.45833 40 0.989583 39.8021 0.59375 39.4062C0.197917 39.0104 0 38.5417 0 38V34C0 33.4583 0.197917 32.9896 0.59375 32.5938C0.989583 32.1979 1.45833 32 2 32H46C46.5417 32 47.0104 32.1979 47.4062 32.5938C47.8021 32.9896 48 33.4583 48 34ZM48 18V22C48 22.5417 47.8021 23.0104 47.4062 23.4062C47.0104 23.8021 46.5417 24 46 24H2C1.45833 24 0.989583 23.8021 0.59375 23.4062C0.197917 23.0104 0 22.5417 0 22V18C0 17.4583 0.197917 16.9896 0.59375 16.5938C0.989583 16.1979 1.45833 16 2 16H46C46.5417 16 47.0104 16.1979 47.4062 16.5938C47.8021 16.9896 48 17.4583 48 18ZM48 2V6C48 6.54167 47.8021 7.01042 47.4062 7.40625C47.0104 7.80208 46.5417 8 46 8H2C1.45833 8 0.989583 7.80208 0.59375 7.40625C0.197917 7.01042 0 6.54167 0 6V2C0 1.45833 0.197917 0.989583 0.59375 0.59375C0.989583 0.197917 1.45833 0 2 0H46C46.5417 0 47.0104 0.197917 47.4062 0.59375C47.8021 0.989583 48 1.45833 48 2Z" fill="white"/>
</svg>
