<svg width="40" height="40" viewBox="0 0 40 40" fill="none" xmlns="http://www.w3.org/2000/svg">
<path d="M20 36.6668C10.795 36.6668 3.33334 29.2052 3.33334 20.0002C3.33334 10.7952 10.795 3.3335 20 3.3335C29.205 3.3335 36.6667 10.7952 36.6667 20.0002C36.6667 29.2052 29.205 36.6668 20 36.6668Z" stroke="#FFC700" stroke-width="2.5" stroke-linecap="round" stroke-linejoin="round"/>
<path d="M27.5 24.167C27.5 24.167 25 27.5003 20 27.5003C15 27.5003 12.5 24.167 12.5 24.167" stroke="#FFC700" stroke-width="2.5" stroke-linecap="round" stroke-linejoin="round"/>
<path d="M25.8333 15.0002C25.6123 15.0002 25.4004 14.9124 25.2441 14.7561C25.0878 14.5998 25 14.3878 25 14.1668C25 13.9458 25.0878 13.7339 25.2441 13.5776C25.4004 13.4213 25.6123 13.3335 25.8333 13.3335C26.0543 13.3335 26.2663 13.4213 26.4226 13.5776C26.5789 13.7339 26.6667 13.9458 26.6667 14.1668C26.6667 14.3878 26.5789 14.5998 26.4226 14.7561C26.2663 14.9124 26.0543 15.0002 25.8333 15.0002Z" fill="#FFC700" stroke="#FFC700" stroke-width="2.5" stroke-linecap="round" stroke-linejoin="round"/>
<path d="M14.1667 15.0002C13.9457 15.0002 13.7337 14.9124 13.5774 14.7561C13.4211 14.5998 13.3333 14.3878 13.3333 14.1668C13.3333 13.9458 13.4211 13.7339 13.5774 13.5776C13.7337 13.4213 13.9457 13.3335 14.1667 13.3335C14.3877 13.3335 14.5996 13.4213 14.7559 13.5776C14.9122 13.7339 15 13.9458 15 14.1668C15 14.3878 14.9122 14.5998 14.7559 14.7561C14.5996 14.9124 14.3877 15.0002 14.1667 15.0002Z" fill="#FFC700" stroke="#FFC700" stroke-width="2.5" stroke-linecap="round" stroke-linejoin="round"/>
</svg>
