<svg width="40" height="40" viewBox="0 0 40 40" fill="none" xmlns="http://www.w3.org/2000/svg">
<path d="M12.5 20C12.5 20.663 12.2366 21.2989 11.7678 21.7678C11.2989 22.2366 10.663 22.5 10 22.5C9.33696 22.5 8.70107 22.2366 8.23223 21.7678C7.76339 21.2989 7.5 20.663 7.5 20C7.5 19.337 7.76339 18.7011 8.23223 18.2322C8.70107 17.7634 9.33696 17.5 10 17.5C10.663 17.5 11.2989 17.7634 11.7678 18.2322C12.2366 18.7011 12.5 19.337 12.5 20V20ZM22.5 20C22.5 20.663 22.2366 21.2989 21.7678 21.7678C21.2989 22.2366 20.663 22.5 20 22.5C19.337 22.5 18.7011 22.2366 18.2322 21.7678C17.7634 21.2989 17.5 20.663 17.5 20C17.5 19.337 17.7634 18.7011 18.2322 18.2322C18.7011 17.7634 19.337 17.5 20 17.5C20.663 17.5 21.2989 17.7634 21.7678 18.2322C22.2366 18.7011 22.5 19.337 22.5 20ZM30 22.5C30.663 22.5 31.2989 22.2366 31.7678 21.7678C32.2366 21.2989 32.5 20.663 32.5 20C32.5 19.337 32.2366 18.7011 31.7678 18.2322C31.2989 17.7634 30.663 17.5 30 17.5C29.337 17.5 28.7011 17.7634 28.2322 18.2322C27.7634 18.7011 27.5 19.337 27.5 20C27.5 20.663 27.7634 21.2989 28.2322 21.7678C28.7011 22.2366 29.337 22.5 30 22.5V22.5Z" fill="white"/>
<path d="M5.4125 39.5075L5.4625 39.4975C10.0375 38.59 12.8325 37.3925 14.1325 36.735C16.0465 37.2455 18.0191 37.5027 20 37.5C31.045 37.5 40 29.665 40 20C40 10.335 31.045 2.5 20 2.5C8.955 2.5 0 10.335 0 20C0 24.4 1.8575 28.425 4.925 31.5C4.71039 33.4752 4.27088 35.4195 3.615 37.295L3.6075 37.3225C3.42111 37.8597 3.21767 38.3908 2.9975 38.915C2.8 39.38 3.1825 39.9 3.68 39.82C4.25915 39.7252 4.83673 39.621 5.4125 39.5075V39.5075ZM7.4125 31.7375C7.44752 31.3715 7.40137 31.0023 7.27735 30.6561C7.15333 30.31 6.95449 29.9955 6.695 29.735C4.045 27.075 2.5 23.67 2.5 20C2.5 12.02 10.01 5 20 5C29.99 5 37.5 12.02 37.5 20C37.5 27.9825 29.99 35 20 35C18.2378 35.0026 16.4828 34.774 14.78 34.32C14.1849 34.1606 13.552 34.2264 13.0025 34.505C12.035 34.995 9.9025 35.93 6.4175 36.7375C6.90369 35.1053 7.2368 33.4314 7.4125 31.7375V31.7375Z" fill="white"/>
</svg>
