<svg width="40" height="40" viewBox="0 0 40 40" fill="none" xmlns="http://www.w3.org/2000/svg">
<path d="M18.3335 39.3165V33.3165C9.9835 32.8832 3.3335 25.9498 3.3335 17.4998C3.3335 8.7665 10.4335 1.6665 19.1668 1.6665C27.9002 1.6665 35.0002 8.7665 35.0002 17.4998C35.0002 25.7498 29.2668 34.0498 20.7168 38.1665L18.3335 39.3165ZM19.1668 4.99984C12.2668 4.99984 6.66683 10.5998 6.66683 17.4998C6.66683 24.3998 12.2668 29.9998 19.1668 29.9998H21.6668V33.8332C27.7335 29.9998 31.6668 23.6998 31.6668 17.4998C31.6668 10.5998 26.0668 4.99984 19.1668 4.99984ZM17.5002 24.1665H20.8335V27.4998H17.5002V24.1665ZM20.8335 21.6665H17.5002C17.5002 16.2498 22.5002 16.6665 22.5002 13.3332C22.5002 11.4998 21.0002 9.99984 19.1668 9.99984C17.3335 9.99984 15.8335 11.4998 15.8335 13.3332H12.5002C12.5002 9.64984 15.4835 6.6665 19.1668 6.6665C22.8502 6.6665 25.8335 9.64984 25.8335 13.3332C25.8335 17.4998 20.8335 17.9165 20.8335 21.6665Z" fill="white"/>
</svg>
