<svg width="22" height="26" viewBox="0 0 22 26" fill="none" xmlns="http://www.w3.org/2000/svg">
<path d="M21.482 5.62401L11.482 0.124012C11.3343 0.0427784 11.1685 0.000183105 11 0.000183105C10.8315 0.000183105 10.6657 0.0427784 10.518 0.124012L0.517994 5.62401C0.361206 5.71034 0.230461 5.83716 0.139401 5.99124C0.0483417 6.14533 0.000305176 6.32103 0.000305176 6.50001C0.000305176 6.67899 0.0483417 6.85469 0.139401 7.00878C0.230461 7.16286 0.361206 7.28969 0.517994 7.37601L9.99999 12.591V23.31L6.96399 21.64L5.99999 23.391L10.518 25.876C10.6656 25.9574 10.8314 26.0001 11 26.0001C11.1686 26.0001 11.3344 25.9574 11.482 25.876L21.482 20.376C21.6388 20.2897 21.7696 20.1629 21.8608 20.0088C21.9519 19.8547 22 19.679 22 19.5V6.50001C22 6.321 21.9519 6.14528 21.8608 5.99119C21.7696 5.8371 21.6388 5.7103 21.482 5.62401ZM11 2.14201L18.925 6.50001L11 10.858L3.07499 6.50001L11 2.14201ZM20 18.909L12 23.309V12.59L20 8.19001V18.909Z" fill="#4ECB71"/>
</svg>
