<svg width="40" height="40" viewBox="0 0 40 40" fill="none" xmlns="http://www.w3.org/2000/svg">
<path d="M18.3817 4.23318C18.8767 3.95824 19.4337 3.81396 20 3.81396C20.5663 3.81396 21.1233 3.95824 21.6183 4.23318L34.1433 11.1898C34.403 11.3342 34.6194 11.5454 34.77 11.8016C34.9206 12.0577 35 12.3494 35 12.6465V26.3715C34.9999 26.9659 34.8408 27.5495 34.5392 28.0617C34.2377 28.574 33.8047 28.9963 33.285 29.2848L21.6183 35.7682C21.1233 36.0431 20.5663 36.1874 20 36.1874C19.4337 36.1874 18.8767 36.0431 18.3817 35.7682L6.715 29.2848C6.19559 28.9964 5.76272 28.5744 5.46119 28.0624C5.15966 27.5505 5.00044 26.9673 5 26.3732V12.6465C4.99999 12.3494 5.0794 12.0577 5.23003 11.8016C5.38065 11.5454 5.59699 11.3342 5.85667 11.1898L18.3833 4.23318H18.3817Z" stroke="#4ECB71" stroke-width="3.33333" stroke-linecap="round" stroke-linejoin="round"/>
<path d="M20 19.9998V36.6665M5 11.6665L20 19.9998L5 11.6665ZM20 19.9998L35 11.6665L20 19.9998Z" stroke="#4ECB71" stroke-width="3.33333" stroke-linejoin="round"/>
<path d="M12.5 15.8333L27.5 7.5" stroke="#4ECB71" stroke-width="3.33333" stroke-linecap="round" stroke-linejoin="round"/>
<path d="M10 20.5464L15 23.3331" stroke="#4ECB71" stroke-width="3.33333" stroke-linecap="round" stroke-linejoin="round"/>
</svg>
