<svg width="41" height="40" viewBox="0 0 41 40" fill="none" xmlns="http://www.w3.org/2000/svg">
<g clip-path="url(#clip0_287:33)">
<path fill-rule="evenodd" clip-rule="evenodd" d="M0.450195 20.1117C0.450195 30.055 7.67186 38.3233 17.1169 40V25.555H12.1169V20H17.1169V15.555C17.1169 10.555 20.3385 7.77833 24.8952 7.77833C26.3385 7.77833 27.8952 8 29.3385 8.22167V13.3333H26.7835C24.3385 13.3333 23.7835 14.555 23.7835 16.1117V20H29.1169L28.2285 25.555H23.7835V40C33.2285 38.3233 40.4502 30.0567 40.4502 20.1117C40.4502 9.05 31.4502 0 20.4502 0C9.4502 0 0.450195 9.05 0.450195 20.1117Z" fill="white"/>
</g>
<defs>
<clipPath id="clip0_287:33">
<rect width="40" height="40" fill="white" transform="translate(0.450195)"/>
</clipPath>
</defs>
</svg>
