<svg width="32" height="32" viewBox="0 0 32 32" fill="none" xmlns="http://www.w3.org/2000/svg">
<path d="M29.4819 8.62395L19.4819 3.12395C19.3343 3.04272 19.1685 3.00012 18.9999 3.00012C18.8314 3.00012 18.6656 3.04272 18.5179 3.12395L8.51793 8.62395C8.36115 8.71028 8.2304 8.8371 8.13934 8.99118C8.04828 9.14527 8.00024 9.32097 8.00024 9.49995C8.00024 9.67893 8.04828 9.85463 8.13934 10.0087C8.2304 10.1628 8.36115 10.2896 8.51793 10.376L17.9999 15.591V26.3099L14.9639 24.6399L13.9999 26.391L18.5179 28.8759C18.6655 28.9574 18.8314 29.0001 18.9999 29.0001C19.1685 29.0001 19.3343 28.9574 19.4819 28.8759L29.4819 23.3759C29.6388 23.2897 29.7696 23.1629 29.8607 23.0088C29.9518 22.8547 29.9999 22.679 29.9999 22.5V9.49995C29.9999 9.32094 29.9518 9.14522 29.8607 8.99113C29.7696 8.83704 29.6388 8.71023 29.4819 8.62395ZM18.9999 5.14195L26.9249 9.49995L18.9999 13.858L11.0749 9.49995L18.9999 5.14195ZM27.9999 21.909L19.9999 26.309V15.59L27.9999 11.19V21.909Z" fill="#4ECB71"/>
<path d="M10 16H2V14H10V16Z" fill="#4ECB71"/>
<path d="M12 24H4V22H12V24Z" fill="#4ECB71"/>
<path d="M14 20H6V18H14V20Z" fill="#4ECB71"/>
</svg>
