<svg width="40" height="40" viewBox="0 0 40 40" fill="none" xmlns="http://www.w3.org/2000/svg">
<path d="M3.33334 14.0001C3.33313 12.804 3.57133 11.6199 4.03401 10.517C4.49669 9.41405 5.17456 8.4144 6.02803 7.57646C6.88149 6.73852 7.89341 6.07909 9.00465 5.63673C10.1159 5.19436 11.3042 4.97793 12.5 5.00008C13.9149 4.99256 15.3153 5.28586 16.6083 5.86053C17.9013 6.4352 19.0574 7.27811 20 8.33341C20.9426 7.27811 22.0987 6.4352 23.3917 5.86053C24.6847 5.28586 26.0851 4.99256 27.5 5.00008C28.6958 4.97793 29.8841 5.19436 30.9954 5.63673C32.1066 6.07909 33.1185 6.73852 33.972 7.57646C34.8254 8.4144 35.5033 9.41405 35.966 10.517C36.4287 11.6199 36.6669 12.804 36.6667 14.0001C36.6667 22.9267 26.035 29.6667 20 35.0001C13.9783 29.6217 3.33334 22.9334 3.33334 14.0001Z" fill="#FF0000"/>
</svg>
