<svg width="40" height="40" viewBox="0 0 40 40" fill="none" xmlns="http://www.w3.org/2000/svg">
<path d="M35.4002 6.17257C34.4711 5.24354 33.3681 4.50669 32.1542 4.00414C30.9403 3.50158 29.6392 3.24316 28.3253 3.24365C27.0115 3.24415 25.7106 3.50354 24.4971 4.00701C23.2835 4.51048 22.1811 5.24816 21.2527 6.17789L20.0409 7.40445L18.8392 6.18054L18.8314 6.17273C17.9028 5.24414 16.8004 4.50753 15.5872 4.00498C14.3739 3.50243 13.0735 3.24377 11.7603 3.24377C10.4471 3.24377 9.14672 3.50243 7.93346 4.00498C6.7202 4.50753 5.61781 5.24414 4.68922 6.17273L4.14938 6.71257C2.27402 8.58794 1.22046 11.1315 1.22046 13.7836C1.22046 16.4358 2.27402 18.9793 4.14938 20.8547L18.3973 35.1024L20.0063 36.7882L20.0446 36.7498L20.0863 36.7914L21.5938 35.2009L35.94 20.8544C37.8126 18.9776 38.8642 16.4346 38.8642 13.7834C38.8642 11.1322 37.8126 8.58919 35.94 6.71234L35.4002 6.17257ZM34.1719 19.0867L20.0446 33.2143L5.91703 19.0867C4.51052 17.6802 3.72035 15.7725 3.72035 13.7834C3.72035 11.7943 4.51052 9.88667 5.91703 8.48015L6.45696 7.94031C7.86279 6.53449 9.76928 5.74437 11.7574 5.74363C13.7456 5.74288 15.6526 6.53156 17.0595 7.93632L20.0355 10.9666L23.0257 7.94031C23.7221 7.24386 24.5489 6.69141 25.4589 6.3145C26.3688 5.93758 27.3441 5.74359 28.329 5.74359C29.3139 5.74359 30.2892 5.93758 31.1992 6.3145C32.1091 6.69141 32.9359 7.24386 33.6323 7.94031L34.1722 8.48007C35.5766 9.88775 36.3653 11.795 36.3652 13.7835C36.3651 15.7719 35.5764 17.6791 34.1719 19.0867V19.0867Z" fill="#F8F8F8"/>
</svg>
