<?xml version="1.0" encoding="UTF-8"?>
<!DOCTYPE svg PUBLIC "-//W3C//DTD SVG 1.1//EN" "http://www.w3.org/Graphics/SVG/1.1/DTD/svg11.dtd">
<svg xmlns="http://www.w3.org/2000/svg" version="1.1" width="330px" height="150px" style="shape-rendering:geometricPrecision; text-rendering:geometricPrecision; image-rendering:optimizeQuality; fill-rule:evenodd; clip-rule:evenodd" xmlns:xlink="http://www.w3.org/1999/xlink">
<g><path style="opacity:1" fill="#fefefe" d="M -0.5,-0.5 C 109.5,-0.5 219.5,-0.5 329.5,-0.5C 329.5,49.5 329.5,99.5 329.5,149.5C 219.5,149.5 109.5,149.5 -0.5,149.5C -0.5,99.5 -0.5,49.5 -0.5,-0.5 Z"/></g>
<g><path style="opacity:1" fill="#2dc2eb" d="M 105.5,42.5 C 107.487,61.1373 108.154,80.1373 107.5,99.5C 105.513,80.8627 104.846,61.8627 105.5,42.5 Z"/></g>
<g><path style="opacity:1" fill="#8edef5" d="M 105.5,42.5 C 106.209,41.596 107.209,41.2627 108.5,41.5C 108.83,61.0072 108.497,80.3405 107.5,99.5C 108.154,80.1373 107.487,61.1373 105.5,42.5 Z"/></g>
<g><path style="opacity:1" fill="#57cbee" d="M 55.5,42.5 C 60.248,42.2748 64.9147,42.7748 69.5,44C 71.4899,45.7506 73.8232,46.7506 76.5,47C 83.5661,56.8748 82.8994,66.2081 74.5,75C 71.7789,77.0272 68.7789,78.5272 65.5,79.5C 64.6143,78.675 64.281,77.675 64.5,76.5C 73.2968,74.5345 77.9635,69.0345 78.5,60C 78.5049,56.3494 77.5049,53.016 75.5,50C 74.8333,49.3333 74.1667,49.3333 73.5,50C 78.8503,59.8966 76.8503,67.8966 67.5,74C 65.9262,74.6987 64.5929,74.3654 63.5,73C 70.2668,70.8122 73.9335,66.1455 74.5,59C 73.112,54.2535 71.112,49.9202 68.5,46C 58.1996,41.901 51.6996,45.0676 49,55.5C 48.5045,57.4727 48.3379,59.4727 48.5,61.5C 47.5,61.5 46.5,61.5 45.5,61.5C 45.1181,57.4602 46.1181,53.7935 48.5,50.5C 47.7261,49.2888 46.8928,49.2888 46,50.5C 44.5339,53.7317 43.3673,57.065 42.5,60.5C 41.0225,56.1806 41.6892,52.1806 44.5,48.5C 48.6192,47.2321 52.2859,45.2321 55.5,42.5 Z"/></g>
<g><path style="opacity:1" fill="#37c3ec" d="M 142.5,49.5 C 147.014,49.073 151.181,50.073 155,52.5C 156.285,52.0496 157.452,51.3829 158.5,50.5C 159.487,53.7683 159.82,57.1016 159.5,60.5C 158.5,60.5 157.5,60.5 156.5,60.5C 155.095,52.7199 150.928,50.3866 144,53.5C 143.333,55.8333 143.333,58.1667 144,60.5C 149.154,64.7433 154.488,68.7433 160,72.5C 164.098,80.8484 161.598,86.3484 152.5,89C 147.147,90.1329 142.147,89.2996 137.5,86.5C 136.15,87.9501 134.484,88.6168 132.5,88.5C 132.5,85.1667 132.5,81.8333 132.5,78.5C 133.675,78.281 134.675,78.6143 135.5,79.5C 138.08,85.9559 142.746,88.4559 149.5,87C 152.097,84.6833 152.93,81.85 152,78.5C 148.707,75.2131 144.873,72.7131 140.5,71C 130.55,62.4622 131.217,55.2955 142.5,49.5 Z"/></g>
<g><path style="opacity:1" fill="#34c2eb" d="M 188.5,72.5 C 187.432,71.5655 186.099,71.2322 184.5,71.5C 184.179,76.6946 184.513,81.6946 185.5,86.5C 186.263,87.2679 187.263,87.7679 188.5,88C 182.425,88.815 177.759,88.6483 174.5,87.5C 175.829,82.0403 176.496,76.207 176.5,70C 176.499,63.9902 176.166,58.1568 175.5,52.5C 174.244,52.5386 173.244,52.0386 172.5,51C 179.5,50.3333 186.5,50.3333 193.5,51C 205.111,53.5415 207.444,59.5415 200.5,69C 198.212,69.8221 195.878,70.4888 193.5,71C 195.899,71.7311 198.065,72.8978 200,74.5C 201.474,79.9688 204.308,84.4688 208.5,88C 204.044,88.8673 199.711,88.5339 195.5,87C 192.752,82.3388 190.419,77.5055 188.5,72.5 Z"/></g>
<g><path style="opacity:1" fill="#3dc4ec" d="M 245.5,72.5 C 245.783,73.2891 246.283,73.9558 247,74.5C 247.821,67.3209 247.655,60.3209 246.5,53.5C 245.192,52.7677 243.858,51.9344 242.5,51C 246.167,50.3333 249.833,50.3333 253.5,51C 252.437,52.1882 251.103,52.6882 249.5,52.5C 249.5,64.8333 249.5,77.1667 249.5,89.5C 247.61,89.7035 246.11,89.0368 245,87.5C 237.667,78.8333 230.333,70.1667 223,61.5C 222.168,69.8533 222.335,78.1866 223.5,86.5C 224.5,87 225.5,87.5 226.5,88C 222.833,88.6667 219.167,88.6667 215.5,88C 217.025,86.9914 218.692,86.4914 220.5,86.5C 220.5,75.1667 220.5,63.8333 220.5,52.5C 215.025,51.1448 215.192,50.4782 221,50.5C 223.3,50.4944 225.466,50.9944 227.5,52C 233.709,58.7048 239.709,65.5382 245.5,72.5 Z"/></g>
<g><path style="opacity:1" fill="#33c2eb" d="M 279.5,72.5 C 278.432,71.5655 277.099,71.2322 275.5,71.5C 275.179,76.6946 275.513,81.6946 276.5,86.5C 277.263,87.2679 278.263,87.7679 279.5,88C 273.425,88.815 268.759,88.6483 265.5,87.5C 266.829,82.0403 267.496,76.207 267.5,70C 267.499,63.9902 267.166,58.1568 266.5,52.5C 265.244,52.5386 264.244,52.0386 263.5,51C 270.5,50.3333 277.5,50.3333 284.5,51C 296.111,53.5415 298.444,59.5415 291.5,69C 289.212,69.8221 286.878,70.4888 284.5,71C 286.899,71.7311 289.065,72.8978 291,74.5C 292.598,79.5324 295.098,84.0324 298.5,88C 294.375,88.8538 290.375,88.5204 286.5,87C 283.752,82.3388 281.419,77.5055 279.5,72.5 Z"/></g>
<g><path style="opacity:1" fill="#73d6f1" d="M 175.5,52.5 C 176.166,58.1568 176.499,63.9902 176.5,70C 176.496,76.207 175.829,82.0403 174.5,87.5C 175.478,75.9139 175.811,64.2473 175.5,52.5 Z"/></g>
<g><path style="opacity:1" fill="#fcfefe" d="M 185.5,52.5 C 191.913,51.7466 194.913,54.58 194.5,61C 194.732,67.2671 191.732,70.4337 185.5,70.5C 185.5,64.5 185.5,58.5 185.5,52.5 Z"/></g>
<g><path style="opacity:1" fill="#73d6f1" d="M 266.5,52.5 C 267.166,58.1568 267.499,63.9902 267.5,70C 267.496,76.207 266.829,82.0403 265.5,87.5C 266.478,75.9139 266.811,64.2473 266.5,52.5 Z"/></g>
<g><path style="opacity:1" fill="#fcfefe" d="M 276.5,52.5 C 282.913,51.7466 285.913,54.58 285.5,61C 285.732,67.2671 282.732,70.4337 276.5,70.5C 276.5,64.5 276.5,58.5 276.5,52.5 Z"/></g>
<g><path style="opacity:1" fill="#97e0f5" d="M 246.5,53.5 C 247.655,60.3209 247.821,67.3209 247,74.5C 246.283,73.9558 245.783,73.2891 245.5,72.5C 246.49,66.3554 246.823,60.0221 246.5,53.5 Z"/></g>
<g><path style="opacity:1" fill="#9fe3f6" d="M 188.5,72.5 C 187.5,72.5 186.5,72.5 185.5,72.5C 185.5,77.1667 185.5,81.8333 185.5,86.5C 184.513,81.6946 184.179,76.6946 184.5,71.5C 186.099,71.2322 187.432,71.5655 188.5,72.5 Z"/></g>
<g><path style="opacity:1" fill="#9fe3f6" d="M 279.5,72.5 C 278.5,72.5 277.5,72.5 276.5,72.5C 276.5,77.1667 276.5,81.8333 276.5,86.5C 275.513,81.6946 275.179,76.6946 275.5,71.5C 277.099,71.2322 278.432,71.5655 279.5,72.5 Z"/></g>
<g><path style="opacity:1" fill="#4dc8ed" d="M 37.5,62.5 C 44.993,61.9584 51.993,63.4584 58.5,67C 66.5909,79.2658 64.5909,89.5991 52.5,98C 40.2043,102.35 31.0376,98.8501 25,87.5C 22.2028,79.9448 23.3695,73.1114 28.5,67C 31.8606,66.1196 34.8606,64.6196 37.5,62.5 Z"/></g>
<g><path style="opacity:1" fill="#eaf8fd" d="M 28.5,69.5 C 29.4972,69.4701 30.1639,69.9701 30.5,71C 27.7719,77.2294 27.9386,83.3961 31,89.5C 39.3333,97.5 47.6667,97.5 56,89.5C 59.4866,82.8557 59.32,76.3557 55.5,70C 56.1667,69.3333 56.8333,69.3333 57.5,70C 62.6175,77.1389 62.4508,84.3055 57,91.5C 49.4812,98.3768 41.3146,99.2101 32.5,94C 26.7883,88.3306 24.955,81.4972 27,73.5C 27.7914,72.255 28.2914,70.9217 28.5,69.5 Z"/></g>
<g><path style="opacity:1" fill="#fbfdfe" d="M 38.5,64.5 C 48.8312,62.3799 54.3312,66.3799 55,76.5C 50.1667,74.3333 46.6667,70.8333 44.5,66C 43.6683,65.3123 43.0016,65.479 42.5,66.5C 44.526,72.5261 48.526,76.5261 54.5,78.5C 55.086,78.2907 55.586,77.9574 56,77.5C 55.9922,89.165 50.1588,93.9983 38.5,92C 32.108,88.3766 29.608,82.8766 31,75.5C 32.5621,73.0427 33.5621,70.376 34,67.5C 35.6516,66.6006 37.1516,65.6006 38.5,64.5 Z"/></g>
<g><path style="opacity:1" fill="#50caee" d="M 47.5,66.5 C 50.7865,67.2729 52.2865,69.2729 52,72.5C 49.8733,70.8863 48.3733,68.8863 47.5,66.5 Z"/></g>
</svg>
