<svg width="40" height="40" viewBox="0 0 40 40" fill="none" xmlns="http://www.w3.org/2000/svg">
<path fill-rule="evenodd" clip-rule="evenodd" d="M12.4416 1.77699C14.3966 1.68699 15.02 1.66699 20 1.66699C24.98 1.66699 25.6033 1.68866 27.5566 1.77699C29.51 1.86533 30.8433 2.17699 32.01 2.62866C33.2316 3.09033 34.34 3.81199 35.2566 4.74533C36.19 5.66032 36.91 6.76699 37.37 7.99033C37.8233 9.15699 38.1333 10.4903 38.2233 12.4403C38.3133 14.3987 38.3333 15.022 38.3333 20.0003C38.3333 24.9803 38.3116 25.6037 38.2233 27.5587C38.135 29.5087 37.8233 30.842 37.37 32.0087C36.9099 33.2321 36.1888 34.3407 35.2566 35.257C34.34 36.1903 33.2316 36.9103 32.01 37.3703C30.8433 37.8237 29.51 38.1337 27.56 38.2237C25.6033 38.3137 24.98 38.3337 20 38.3337C15.02 38.3337 14.3966 38.312 12.4416 38.2237C10.4916 38.1353 9.15829 37.8237 7.99163 37.3703C6.76816 36.9103 5.65966 36.1891 4.74329 35.257C3.81059 34.3414 3.08882 33.2335 2.62829 32.0103C2.17663 30.8437 1.86663 29.5103 1.77663 27.5603C1.68663 25.602 1.66663 24.9787 1.66663 20.0003C1.66663 15.0203 1.68829 14.397 1.77663 12.4437C1.86496 10.4903 2.17663 9.15699 2.62829 7.99033C3.0895 6.76713 3.81182 5.65918 4.74496 4.74366C5.66003 3.81116 6.76741 3.0894 7.98996 2.62866C9.15663 2.17699 10.49 1.86699 12.44 1.77699H12.4416ZM27.4083 5.07699C25.475 4.98866 24.895 4.97033 20 4.97033C15.105 4.97033 14.525 4.98866 12.5916 5.07699C10.8033 5.15866 9.83329 5.45699 9.18663 5.70866C8.33163 6.04199 7.71996 6.43699 7.07829 7.07866C6.47003 7.67041 6.00193 8.3908 5.70829 9.18699C5.45663 9.83366 5.15829 10.8037 5.07663 12.592C4.98829 14.5253 4.96996 15.1053 4.96996 20.0003C4.96996 24.8953 4.98829 25.4753 5.07663 27.4087C5.15829 29.197 5.45663 30.167 5.70829 30.8137C6.00163 31.6087 6.46996 32.3303 7.07829 32.922C7.66996 33.5303 8.39163 33.9987 9.18663 34.292C9.83329 34.5437 10.8033 34.842 12.5916 34.9237C14.525 35.012 15.1033 35.0303 20 35.0303C24.8966 35.0303 25.475 35.012 27.4083 34.9237C29.1966 34.842 30.1666 34.5437 30.8133 34.292C31.6683 33.9587 32.28 33.5637 32.9216 32.922C33.53 32.3303 33.9983 31.6087 34.2916 30.8137C34.5433 30.167 34.8416 29.197 34.9233 27.4087C35.0116 25.4753 35.03 24.8953 35.03 20.0003C35.03 15.1053 35.0116 14.5253 34.9233 12.592C34.8416 10.8037 34.5433 9.83366 34.2916 9.18699C33.9583 8.33199 33.5633 7.72033 32.9216 7.07866C32.3298 6.47044 31.6095 6.00234 30.8133 5.70866C30.1666 5.45699 29.1966 5.15866 27.4083 5.07699V5.07699ZM17.6583 25.652C18.9661 26.1964 20.4223 26.2698 21.7782 25.8599C23.1341 25.4499 24.3056 24.5819 25.0926 23.4041C25.8797 22.2263 26.2334 20.8118 26.0934 19.4022C25.9534 17.9926 25.3283 16.6753 24.325 15.6753C23.6854 15.0361 22.912 14.5467 22.0605 14.2422C21.209 13.9378 20.3007 13.8259 19.4008 13.9147C18.5009 14.0034 17.6319 14.2906 16.8563 14.7555C16.0807 15.2205 15.4179 15.8516 14.9155 16.6034C14.4131 17.3553 14.0836 18.2091 13.9508 19.1036C13.818 19.998 13.8852 20.9108 14.1475 21.7762C14.4098 22.6416 14.8608 23.438 15.4678 24.1082C16.0749 24.7784 16.823 25.3056 17.6583 25.652ZM13.3366 13.337C14.2117 12.4619 15.2505 11.7678 16.3938 11.2943C17.5371 10.8207 18.7625 10.5769 20 10.5769C21.2375 10.5769 22.4628 10.8207 23.6061 11.2943C24.7494 11.7678 25.7882 12.4619 26.6633 13.337C27.5383 14.212 28.2325 15.2509 28.706 16.3942C29.1796 17.5375 29.4233 18.7628 29.4233 20.0003C29.4233 21.2378 29.1796 22.4632 28.706 23.6065C28.2325 24.7498 27.5383 25.7886 26.6633 26.6637C24.8961 28.4309 22.4992 29.4237 20 29.4237C17.5007 29.4237 15.1039 28.4309 13.3366 26.6637C11.5694 24.8964 10.5766 22.4996 10.5766 20.0003C10.5766 17.5011 11.5694 15.1042 13.3366 13.337V13.337ZM31.5133 11.9803C31.7301 11.7758 31.9037 11.5298 32.0238 11.2569C32.1439 10.9841 32.208 10.6899 32.2123 10.3919C32.2167 10.0938 32.1612 9.7979 32.0491 9.52167C31.937 9.24545 31.7707 8.99451 31.5599 8.78372C31.3491 8.57294 31.0982 8.40659 30.8219 8.29452C30.5457 8.18245 30.2498 8.12695 29.9517 8.1313C29.6537 8.13564 29.3595 8.19975 29.0867 8.31982C28.8138 8.43989 28.5678 8.61348 28.3633 8.83032C27.9655 9.25204 27.7477 9.81219 27.7561 10.3919C27.7646 10.9716 27.9986 11.5251 28.4086 11.9351C28.8185 12.345 29.3721 12.579 29.9517 12.5875C30.5314 12.5959 31.0916 12.3781 31.5133 11.9803V11.9803Z" fill="white"/>
</svg>
