<svg width="41" height="40" viewBox="0 0 41 40" fill="none" xmlns="http://www.w3.org/2000/svg">
<path d="M20.1753 5C11.842 5 5.17529 11.6667 5.17529 20C5.17529 28.3333 11.842 35 20.1753 35C28.5086 35 35.1753 28.3333 35.1753 20C35.1753 11.6667 28.5086 5 20.1753 5ZM20.1753 16.6667C22.0086 16.6667 23.5086 18.1667 23.5086 20C23.5086 21.8333 22.0086 23.3333 20.1753 23.3333C18.342 23.3333 16.842 21.8333 16.842 20C16.842 18.1667 18.342 16.6667 20.1753 16.6667ZM24.842 13.3333C24.842 12.1667 25.842 11.3333 26.842 11.3333C27.842 11.3333 28.842 12.3333 28.842 13.3333C28.842 14.3333 28.0086 15.3333 26.842 15.3333C25.6753 15.3333 24.842 14.5 24.842 13.3333V13.3333ZM20.1753 31.6667C13.6753 31.6667 8.50863 26.5 8.50863 20H13.5086C13.5086 23.6667 16.5086 26.6667 20.1753 26.6667C23.842 26.6667 26.842 23.6667 26.842 20H31.842C31.842 26.5 26.6753 31.6667 20.1753 31.6667Z" fill="white"/>
</svg>
