<svg width="41" height="40" viewBox="0 0 41 40" fill="none" xmlns="http://www.w3.org/2000/svg">
<g clip-path="url(#clip0_287:39)">
<path d="M20.4502 0C15.0227 0 14.3402 0.025 12.2077 0.12C10.0752 0.22 8.6227 0.555 7.3502 1.05C6.01543 1.55205 4.80642 2.33957 3.8077 3.3575C2.79039 4.35674 2.00296 5.5656 1.5002 6.9C1.0052 8.17 0.667695 9.625 0.570195 11.75C0.475195 13.8875 0.450195 14.5675 0.450195 20.0025C0.450195 25.4325 0.475195 26.1125 0.570195 28.245C0.670195 30.375 1.0052 31.8275 1.5002 33.1C2.0127 34.415 2.6952 35.53 3.8077 36.6425C4.9177 37.755 6.0327 38.44 7.3477 38.95C8.6227 39.445 10.0727 39.7825 12.2027 39.88C14.3377 39.975 15.0177 40 20.4502 40C25.8827 40 26.5602 39.975 28.6952 39.88C30.8227 39.78 32.2802 39.445 33.5527 38.95C34.8866 38.4477 36.0947 37.6602 37.0927 36.6425C38.2052 35.53 38.8877 34.415 39.4002 33.1C39.8927 31.8275 40.2302 30.375 40.3302 28.245C40.4252 26.1125 40.4502 25.4325 40.4502 20C40.4502 14.5675 40.4252 13.8875 40.3302 11.7525C40.2302 9.625 39.8927 8.17 39.4002 6.9C38.8975 5.56556 38.1101 4.35669 37.0927 3.3575C36.0943 2.33919 34.8852 1.55161 33.5502 1.05C32.2752 0.555 30.8202 0.2175 28.6927 0.12C26.5577 0.025 25.8802 0 20.4452 0H20.4527H20.4502ZM18.6577 3.605H20.4527C25.7927 3.605 26.4252 3.6225 28.5327 3.72C30.4827 3.8075 31.5427 4.135 32.2477 4.4075C33.1802 4.77 33.8477 5.205 34.5477 5.905C35.2477 6.605 35.6802 7.27 36.0427 8.205C36.3177 8.9075 36.6427 9.9675 36.7302 11.9175C36.8277 14.025 36.8477 14.6575 36.8477 19.995C36.8477 25.3325 36.8277 25.9675 36.7302 28.075C36.6427 30.025 36.3152 31.0825 36.0427 31.7875C35.7221 32.6559 35.2103 33.4411 34.5452 34.085C33.8452 34.785 33.1802 35.2175 32.2452 35.58C31.5452 35.855 30.4852 36.18 28.5327 36.27C26.4252 36.365 25.7927 36.3875 20.4527 36.3875C15.1127 36.3875 14.4777 36.365 12.3702 36.27C10.4202 36.18 9.3627 35.855 8.6577 35.58C7.78894 35.2598 7.00301 34.7489 6.3577 34.085C5.69207 33.4401 5.1795 32.6541 4.8577 31.785C4.5852 31.0825 4.2577 30.0225 4.1702 28.0725C4.0752 25.965 4.0552 25.3325 4.0552 19.99C4.0552 14.65 4.0752 14.02 4.1702 11.9125C4.2602 9.9625 4.5852 8.9025 4.8602 8.1975C5.2227 7.265 5.6577 6.5975 6.3577 5.8975C7.0577 5.1975 7.7227 4.765 8.6577 4.4025C9.3627 4.1275 10.4202 3.8025 12.3702 3.7125C14.2152 3.6275 14.9302 3.6025 18.6577 3.6V3.605V3.605ZM31.1277 6.925C30.8125 6.925 30.5004 6.98708 30.2093 7.10769C29.9181 7.2283 29.6535 7.40508 29.4306 7.62794C29.2078 7.8508 29.031 8.11538 28.9104 8.40656C28.7898 8.69774 28.7277 9.00983 28.7277 9.325C28.7277 9.64017 28.7898 9.95226 28.9104 10.2434C29.031 10.5346 29.2078 10.7992 29.4306 11.0221C29.6535 11.2449 29.9181 11.4217 30.2093 11.5423C30.5004 11.6629 30.8125 11.725 31.1277 11.725C31.7642 11.725 32.3747 11.4721 32.8248 11.0221C33.2748 10.572 33.5277 9.96152 33.5277 9.325C33.5277 8.68848 33.2748 8.07803 32.8248 7.62794C32.3747 7.17786 31.7642 6.925 31.1277 6.925V6.925ZM20.4527 9.73C19.0904 9.70875 17.7374 9.95871 16.4726 10.4654C15.2078 10.972 14.0565 11.7252 13.0856 12.6811C12.1147 13.6369 11.3436 14.7764 10.8173 16.0331C10.291 17.2899 10.0199 18.6388 10.0199 20.0012C10.0199 21.3637 10.291 22.7126 10.8173 23.9693C11.3436 25.2261 12.1147 26.3656 13.0856 27.3214C14.0565 28.2773 15.2078 29.0305 16.4726 29.5371C17.7374 30.0438 19.0904 30.2938 20.4527 30.2725C23.149 30.2304 25.7207 29.1298 27.6126 27.2081C29.5045 25.2865 30.5649 22.6979 30.5649 20.0012C30.5649 17.3046 29.5045 14.716 27.6126 12.7944C25.7207 10.8727 23.149 9.77207 20.4527 9.73V9.73ZM20.4527 13.3325C22.221 13.3325 23.9169 14.035 25.1673 15.2854C26.4177 16.5358 27.1202 18.2317 27.1202 20C27.1202 21.7683 26.4177 23.4642 25.1673 24.7146C23.9169 25.965 22.221 26.6675 20.4527 26.6675C18.6844 26.6675 16.9885 25.965 15.7381 24.7146C14.4877 23.4642 13.7852 21.7683 13.7852 20C13.7852 18.2317 14.4877 16.5358 15.7381 15.2854C16.9885 14.035 18.6844 13.3325 20.4527 13.3325V13.3325Z" fill="white"/>
</g>
<defs>
<clipPath id="clip0_287:39">
<rect width="40" height="40" fill="white" transform="translate(0.450195)"/>
</clipPath>
</defs>
</svg>
