<svg width="40" height="65" viewBox="0 0 40 65" fill="none" xmlns="http://www.w3.org/2000/svg">
<g clip-path="url(#clip0_263:46)">
<path d="M20 32.4165V63.5832" stroke="#1EF2A6" stroke-width="3.33333" stroke-linecap="round" stroke-linejoin="round"/>
<path d="M27.0833 38.083H16.4583C15.1433 38.083 13.8821 38.6054 12.9523 39.5353C12.0224 40.4651 11.5 41.7263 11.5 43.0413C11.5 44.3564 12.0224 45.6175 12.9523 46.5474C13.8821 47.4773 15.1433 47.9997 16.4583 47.9997H23.5417C24.8567 47.9997 26.1179 48.5221 27.0477 49.4519C27.9776 50.3818 28.5 51.643 28.5 52.958C28.5 54.273 27.9776 55.5342 27.0477 56.4641C26.1179 57.3939 24.8567 57.9163 23.5417 57.9163H11.5" stroke="#1EF2A6" stroke-width="3.33333" stroke-linecap="round" stroke-linejoin="round"/>
</g>
<path d="M38.8663 19.1077C38.7222 18.8558 38.5288 18.6355 38.2977 18.46C38.0667 18.2844 37.8026 18.1571 37.5213 18.0858C35.9921 17.7106 34.4052 17.6316 32.8463 17.853C33.4315 14.9119 32.9857 12.5903 32.5379 11.2114C32.3719 10.6966 32.0206 10.2618 31.5522 9.99133C31.0838 9.72087 30.5316 9.63403 30.0027 9.74766C28.4734 10.0874 27.0202 10.7075 25.7168 11.5767C24.7366 9.38013 23.2228 7.46343 21.313 6.00095C20.9348 5.71577 20.4739 5.56152 20.0002 5.56152C19.5265 5.56152 19.0657 5.71577 18.6874 6.00095C16.7776 7.46344 15.2637 9.3802 14.2835 11.5769C12.9803 10.7077 11.5273 10.0875 9.99804 9.74782C9.46916 9.63409 8.91688 9.72086 8.44836 9.99129C7.97984 10.2617 7.62847 10.6966 7.46241 11.2114C7.01476 12.5903 6.56898 14.9119 7.15413 17.8531C5.59522 17.6318 4.00837 17.7108 2.47913 18.0858C2.19825 18.1581 1.93461 18.2857 1.70364 18.4611C1.47267 18.6366 1.27901 18.8563 1.13399 19.1075C0.988973 19.3587 0.895512 19.6363 0.859076 19.924C0.82264 20.2118 0.84396 20.5039 0.92179 20.7833C1.46195 22.7144 3.1182 26.3874 8.14242 29.2881C13.1623 32.1863 17.6077 32.1874 19.9974 32.1874L19.9993 32.1875H20.0012L20.003 32.1874C22.3927 32.1874 26.838 32.1863 31.858 29.2881C36.8823 26.3874 38.5385 22.7144 39.0787 20.7833C39.1576 20.504 39.1794 20.2117 39.1429 19.9238C39.1065 19.6359 39.0124 19.3583 38.8663 19.1075V19.1077ZM30.3929 11.5816C30.4683 11.5656 30.547 11.5782 30.6138 11.6168C30.6806 11.6554 30.7307 11.7173 30.7546 11.7906C31.1957 13.1486 31.6285 15.5789 30.7062 18.702C30.6887 18.748 30.6749 18.7953 30.6649 18.8434C30.2897 20.0456 29.7793 21.2013 29.1435 22.2883C28.0711 24.1162 26.7088 25.7578 25.1099 27.1488C26.2693 25.1014 27.1877 22.3453 27.1877 18.7499C27.2004 16.9297 26.9356 15.1182 26.4024 13.3778C27.5977 12.516 28.955 11.905 30.3927 11.5816H30.3929ZM19.8088 7.5036C19.864 7.46198 19.9311 7.43946 20.0002 7.43946C20.0693 7.43946 20.1365 7.46198 20.1916 7.5036C21.7313 8.65298 25.3127 12.0495 25.3127 18.7499C25.3127 25.8267 21.3737 29.1842 20.0037 30.1378C18.6513 29.1827 14.6877 25.783 14.6877 18.7499C14.6877 12.0495 18.269 8.65298 19.8088 7.5036ZM9.2457 11.7906C9.26936 11.7171 9.31954 11.6549 9.38649 11.6163C9.45343 11.5777 9.53235 11.5654 9.60788 11.5817C11.0455 11.905 12.4028 12.5159 13.598 13.3777C13.0648 15.1181 12.8 16.9296 12.8127 18.7499C12.8127 22.3452 13.7313 25.1014 14.8905 27.1488C13.2916 25.7578 11.9293 24.1162 10.8569 22.2883C10.2204 21.1999 9.70954 20.0428 9.33429 18.8391C9.32454 18.7931 9.31132 18.748 9.29476 18.7041C8.37179 15.5799 8.8046 13.1489 9.2457 11.7906V11.7906ZM2.72757 20.2781C2.71702 20.2392 2.71428 20.1985 2.71949 20.1585C2.72471 20.1185 2.73778 20.0799 2.75797 20.0449C2.77815 20.01 2.80504 19.9794 2.8371 19.9548C2.86916 19.9303 2.90574 19.9124 2.94476 19.902C3.96913 19.6395 5.59679 19.4311 7.68679 19.8403C8.08908 21.0172 8.60708 22.1512 9.2332 23.2258C10.7973 25.908 12.9251 28.2185 15.4696 29.9978C13.2176 29.6074 11.0535 28.8172 9.07992 27.6644C4.63195 25.0963 3.19085 21.9342 2.72757 20.278V20.2781ZM37.2729 20.2781C36.8098 21.9344 35.3685 25.0963 30.9205 27.6644C28.9469 28.8172 26.7829 29.6075 24.5309 29.9978C27.0753 28.2186 29.2031 25.908 30.7673 23.2259C31.3934 22.1514 31.9114 21.0173 32.3137 19.8405C34.4035 19.4311 36.0312 19.6394 37.0559 19.9022C37.0949 19.9125 37.1314 19.9304 37.1635 19.9549C37.1955 19.9795 37.2224 20.0101 37.2426 20.045C37.2628 20.0799 37.2758 20.1185 37.281 20.1585C37.2862 20.1986 37.2835 20.2392 37.2729 20.2781V20.2781Z" fill="#F21E37"/>
<defs>
<clipPath id="clip0_263:46">
<rect width="34" height="34" fill="white" transform="translate(3 31)"/>
</clipPath>
</defs>
</svg>
