<?xml version="1.0" encoding="UTF-8"?>
<!DOCTYPE svg PUBLIC "-//W3C//DTD SVG 1.1//EN" "http://www.w3.org/Graphics/SVG/1.1/DTD/svg11.dtd">
<svg xmlns="http://www.w3.org/2000/svg" version="1.1" width="500px" height="500px" style="shape-rendering:geometricPrecision; text-rendering:geometricPrecision; image-rendering:optimizeQuality; fill-rule:evenodd; clip-rule:evenodd" xmlns:xlink="http://www.w3.org/1999/xlink">
<g><path style="opacity:1" fill="#fefefe" d="M -0.5,-0.5 C 166.167,-0.5 332.833,-0.5 499.5,-0.5C 499.5,166.167 499.5,332.833 499.5,499.5C 332.833,499.5 166.167,499.5 -0.5,499.5C -0.5,332.833 -0.5,166.167 -0.5,-0.5 Z"/></g>
<g><path style="opacity:1" fill="#ff22b6" d="M 244.5,7.5 C 252.643,6.64911 260.31,8.14911 267.5,12C 274.077,18.5677 275.244,26.0677 271,34.5C 267.613,38.4462 263.446,41.2796 258.5,43C 261.046,48.6773 263.213,54.5107 265,60.5C 267.123,63.2985 269.79,65.2985 273,66.5C 273.5,71.3333 271.333,73.5 266.5,73C 263.438,71.9392 260.938,70.1059 259,67.5C 255.783,60.1219 252.95,52.6219 250.5,45C 248.231,44.2419 246.064,44.4086 244,45.5C 242.666,52.0255 240.5,58.1922 237.5,64C 234.901,64.769 232.401,64.6023 230,63.5C 233.499,49.6651 237.832,35.9984 243,22.5C 245.734,17.5759 249.567,16.4092 254.5,19C 250.039,24.7562 247.372,31.2562 246.5,38.5C 259.042,38.7942 264.875,32.7942 264,20.5C 260.848,15.6776 256.348,13.6776 250.5,14.5C 237.142,14.6866 230.975,21.3532 232,34.5C 229.756,36.9938 227.423,36.9938 225,34.5C 221.09,27.3537 221.923,20.8537 227.5,15C 232.782,11.3532 238.448,8.85325 244.5,7.5 Z"/></g>
<g><path style="opacity:1" fill="#ff1fb6" d="M 290.5,34.5 C 295.046,34.2681 299.379,35.1015 303.5,37C 309.439,44.8742 307.772,50.8742 298.5,55C 293.64,55.9679 288.974,55.4679 284.5,53.5C 282.946,58.8814 284.946,62.3814 290.5,64C 295.96,64.7909 300.96,63.6242 305.5,60.5C 310.361,54.1394 315.027,47.6394 319.5,41C 322.497,40.2446 324.997,41.0779 327,43.5C 327.333,45.0468 326.833,46.3801 325.5,47.5C 325.833,47.8333 326.167,48.1667 326.5,48.5C 331.789,46.1363 337.122,45.9696 342.5,48C 344.187,49.913 344.687,52.0797 344,54.5C 340.762,60.7434 337.095,66.7434 333,72.5C 332.146,74.6073 332.812,75.9407 335,76.5C 340.685,73.8228 345.519,69.9894 349.5,65C 358.421,59.1723 367.421,59.0057 376.5,64.5C 382.022,59.9004 387.356,55.0671 392.5,50C 397.258,49.104 399.758,50.9373 400,55.5C 388.631,65.2014 378.298,75.8681 369,87.5C 367.991,89.0249 367.491,90.6916 367.5,92.5C 369.857,92.6633 372.19,92.4966 374.5,92C 384.638,82.2091 396.305,79.8757 409.5,85C 414.268,88.1909 417.602,92.5242 419.5,98C 419.355,98.772 419.022,99.4387 418.5,100C 416.741,100.798 415.074,100.631 413.5,99.5C 409.9,91.0332 403.567,87.8665 394.5,90C 389.773,91.7402 385.94,94.5735 383,98.5C 382.178,101.517 383.345,103.183 386.5,103.5C 393.666,101.583 400.333,98.5831 406.5,94.5C 409.729,95.8745 410.896,98.2079 410,101.5C 406.667,104.167 403.333,106.833 400,109.5C 398.991,111.025 398.491,112.692 398.5,114.5C 404.852,115.285 410.686,113.952 416,110.5C 417.984,113.317 417.15,115.151 413.5,116C 407.357,118.345 401.024,119.011 394.5,118C 389.972,115.176 389.305,111.51 392.5,107C 387.457,107.997 382.457,107.664 377.5,106C 374.38,103.592 373.047,100.426 373.5,96.5C 369.439,97.9908 365.439,97.8241 361.5,96C 358.064,92.9401 357.731,89.6068 360.5,86C 358.402,86.0322 356.402,86.6989 354.5,88C 346.161,89.7561 340.994,86.5894 339,78.5C 333.556,81.4371 328.389,81.1038 323.5,77.5C 322.515,75.9017 322.349,74.235 323,72.5C 325.27,67.9022 327.937,63.5689 331,59.5C 332.707,57.0912 333.54,54.4245 333.5,51.5C 329.089,51.2028 325.089,52.3694 321.5,55C 317.008,60.3159 313.008,65.9825 309.5,72C 305.497,72.8354 302.164,71.6688 299.5,68.5C 289.211,71.8762 281.044,69.2095 275,60.5C 273.259,47.6399 278.426,38.9733 290.5,34.5 Z"/></g>
<g><path style="opacity:1" fill="#ff21b7" d="M 180.5,36.5 C 183.97,35.8748 186.804,36.8748 189,39.5C 190.165,47.7897 190.998,56.123 191.5,64.5C 192.822,64.67 193.989,64.3366 195,63.5C 198.021,58.9379 199.521,53.9379 199.5,48.5C 200.833,48.5 202.167,48.5 203.5,48.5C 202.924,56.7391 199.924,63.9057 194.5,70C 190.206,72.386 186.373,71.886 183,68.5C 181.775,61.2448 181.108,53.9115 181,46.5C 180.163,44.9926 178.996,44.4926 177.5,45C 175.623,47.2513 174.123,49.7513 173,52.5C 172.832,60.5207 172.332,68.5207 171.5,76.5C 169.119,78.3959 166.619,78.7292 164,77.5C 163.646,68.8081 162.979,60.1414 162,51.5C 161.282,50.5494 160.449,50.3828 159.5,51C 156.769,53.6259 154.936,56.7926 154,60.5C 153.94,67.5029 153.94,74.5029 154,81.5C 151.328,82.8672 148.495,83.8672 145.5,84.5C 138.784,94.0188 130.117,96.5188 119.5,92C 112.577,83.4296 111.744,74.2629 117,64.5C 122.674,57.0676 129.341,55.7343 137,60.5C 140.258,68.1645 138.424,74.3311 131.5,79C 129.158,80.1711 126.824,81.3378 124.5,82.5C 124.968,84.1338 125.968,85.3005 127.5,86C 136.314,87.5084 142.147,84.0084 145,75.5C 144.727,66.5108 144.727,57.5108 145,48.5C 150.457,44.8373 153.457,46.1706 154,52.5C 156.226,45.1476 161.059,41.981 168.5,43C 169.46,44.4194 170.293,45.9194 171,47.5C 173.314,43.025 176.48,39.3583 180.5,36.5 Z"/></g>
<g><path style="opacity:1" fill="#fff4fb" d="M 293.5,40.5 C 298.631,40.606 299.797,42.9394 297,47.5C 293.461,50.6104 289.628,51.1104 285.5,49C 287.695,45.6406 290.362,42.8072 293.5,40.5 Z"/></g>
<g><path style="opacity:1" fill="#ff22b6" d="M 86.5,55.5 C 92.4445,55.6351 96.4445,58.4685 98.5,64C 95.6221,68.6077 92.6221,68.6077 89.5,64C 81.2541,62.5723 78.4208,65.739 81,73.5C 82.5429,75.3783 84.3762,76.8783 86.5,78C 93.6185,79.6229 100.619,81.6229 107.5,84C 117.528,95.6667 115.861,105.667 102.5,114C 94.8209,117.89 88.3209,116.39 83,109.5C 80.7841,106.853 79.7841,103.853 80,100.5C 81.8841,98.4237 84.0508,98.0903 86.5,99.5C 88.947,105.481 93.2803,108.314 99.5,108C 102.057,107.315 103.891,105.815 105,103.5C 106.858,97.4188 105.025,92.9188 99.5,90C 92.7327,88.7135 86.0661,87.0468 79.5,85C 70.2122,78.0308 69.2122,70.0308 76.5,61C 79.7667,58.8703 83.1,57.037 86.5,55.5 Z"/></g>
<g><path style="opacity:1" fill="#fff9fd" d="M 126.5,63.5 C 130.254,64.8276 131.421,67.4942 130,71.5C 123.643,80.4833 121.31,79.4833 123,68.5C 123.997,66.6769 125.164,65.0103 126.5,63.5 Z"/></g>
<g><path style="opacity:1" fill="#fff8fd" d="M 361.5,67.5 C 364.518,67.3354 367.518,67.502 370.5,68C 371.956,68.4226 372.456,69.2559 372,70.5C 367.068,75.4347 361.568,79.6014 355.5,83C 348.128,84.2552 346.628,81.7552 351,75.5C 353.94,71.9632 357.44,69.2965 361.5,67.5 Z"/></g>
<g><path style="opacity:1" fill="#ffdef4" d="M 272.5,97.5 C 258.137,96.2861 243.803,96.2861 229.5,97.5C 229.611,96.8826 229.944,96.3826 230.5,96C 242.833,95.3333 255.167,95.3333 267.5,96C 269.382,96.1981 271.048,96.6981 272.5,97.5 Z"/></g>
<g><path style="opacity:1" fill="#ff70d0" d="M 272.5,97.5 C 272.5,97.8333 272.5,98.1667 272.5,98.5C 256.833,97.1667 241.167,97.1667 225.5,98.5C 226.568,97.5655 227.901,97.2322 229.5,97.5C 243.803,96.2861 258.137,96.2861 272.5,97.5 Z"/></g>
<g><path style="opacity:1" fill="#ff1fb1" d="M 272.5,98.5 C 278.126,99.5902 283.792,100.59 289.5,101.5C 290.167,101.5 290.833,101.5 291.5,101.5C 293.515,102.924 295.848,103.59 298.5,103.5C 304.739,106.025 311.072,108.358 317.5,110.5C 320.223,112.531 323.223,114.198 326.5,115.5C 354.218,130.885 375.552,152.552 390.5,180.5C 391.193,183.639 392.36,186.639 394,189.5C 394.708,190.381 395.542,191.047 396.5,191.5C 399.103,199.051 401.436,206.717 403.5,214.5C 405.221,221.048 406.387,227.714 407,234.5C 407.278,235.416 407.778,236.082 408.5,236.5C 408.5,246.167 408.5,255.833 408.5,265.5C 407.105,274.429 405.438,283.429 403.5,292.5C 400.861,300.033 398.361,307.7 396,315.5C 391.032,323.561 386.532,331.894 382.5,340.5C 379.815,343.19 377.482,346.19 375.5,349.5C 375.5,349.833 375.5,350.167 375.5,350.5C 372.149,352.854 369.482,355.854 367.5,359.5C 357.727,368.949 347.394,377.615 336.5,385.5C 333.802,385.845 331.802,387.178 330.5,389.5C 319.537,395.074 308.203,399.74 296.5,403.5C 289.453,405.449 282.453,407.116 275.5,408.5C 273.833,408.5 272.167,408.5 270.5,408.5C 257.143,409.774 243.81,409.774 230.5,408.5C 217.959,407.086 205.959,404.086 194.5,399.5C 190.319,396.851 185.986,394.184 181.5,391.5C 179.547,390.844 177.547,390.511 175.5,390.5C 145.124,373.461 122.79,349.127 108.5,317.5C 108.065,314.843 107.065,312.509 105.5,310.5C 103.44,303.821 101.274,297.154 99,290.5C 98.2675,285.459 97.4341,280.459 96.5,275.5C 95.6183,262.189 95.285,248.856 95.5,235.5C 98.5451,212.634 105.878,191.3 117.5,171.5C 122.475,168.519 125.475,164.185 126.5,158.5C 133.793,148.206 142.46,139.206 152.5,131.5C 153.873,131.657 155.207,131.49 156.5,131C 157.257,129.488 158.257,128.154 159.5,127C 162.235,125.085 165.235,123.918 168.5,123.5C 168.5,122.5 168.5,121.5 168.5,120.5C 169.348,118.907 170.681,117.74 172.5,117C 178.913,114.123 185.246,111.289 191.5,108.5C 196.25,108.307 200.25,106.64 203.5,103.5C 210.736,101.422 218.069,99.755 225.5,98.5C 241.167,97.1667 256.833,97.1667 272.5,98.5 Z"/></g>
<g><path style="opacity:1" fill="#ffb0e5" d="M 272.5,98.5 C 272.5,98.1667 272.5,97.8333 272.5,97.5C 277.991,97.4169 283.324,98.2503 288.5,100C 289.056,100.383 289.389,100.883 289.5,101.5C 283.792,100.59 278.126,99.5902 272.5,98.5 Z"/></g>
<g><path style="opacity:1" fill="#ffbfe9" d="M 291.5,101.5 C 293.527,101.338 295.527,101.505 297.5,102C 298.056,102.383 298.389,102.883 298.5,103.5C 295.848,103.59 293.515,102.924 291.5,101.5 Z"/></g>
<g><path style="opacity:1" fill="#ff93db" d="M 203.5,103.5 C 200.25,106.64 196.25,108.307 191.5,108.5C 195.064,106.081 199.064,104.414 203.5,103.5 Z"/></g>
<g><path style="opacity:1" fill="#ff99de" d="M 237.5,110.5 C 237.53,109.503 237.03,108.836 236,108.5C 231.825,109.204 227.658,109.871 223.5,110.5C 223.611,109.883 223.944,109.383 224.5,109C 229.826,108.148 235.16,107.814 240.5,108C 239.627,109.045 238.627,109.878 237.5,110.5 Z"/></g>
<g><path style="opacity:1" fill="#fff9fd" d="M 237.5,110.5 C 232.919,113.402 228.586,116.736 224.5,120.5C 218.158,126.843 212.158,133.509 206.5,140.5C 202.217,141.492 197.884,141.826 193.5,141.5C 193.5,141.167 193.5,140.833 193.5,140.5C 185.344,139.343 177.01,139.177 168.5,140C 167.263,140.232 166.263,140.732 165.5,141.5C 162.941,141.802 160.607,141.468 158.5,140.5C 166.052,133.894 174.385,128.561 183.5,124.5C 185.967,124.245 187.967,123.245 189.5,121.5C 191.371,120.203 193.371,119.203 195.5,118.5C 198.578,118.38 201.245,117.38 203.5,115.5C 210.019,113.204 216.685,111.537 223.5,110.5C 227.658,109.871 231.825,109.204 236,108.5C 237.03,108.836 237.53,109.503 237.5,110.5 Z"/></g>
<g><path style="opacity:1" fill="#fface4" d="M 275.5,109.5 C 272.287,109.19 269.287,109.523 266.5,110.5C 265.069,109.918 263.736,109.085 262.5,108C 267.043,107.628 271.377,108.128 275.5,109.5 Z"/></g>
<g><path style="opacity:1" fill="#fffafd" d="M 266.5,110.5 C 269.287,109.523 272.287,109.19 275.5,109.5C 281.16,110.011 286.494,111.344 291.5,113.5C 295.768,114.702 300.102,116.035 304.5,117.5C 318.029,123.004 330.696,130.004 342.5,138.5C 342.953,139.458 343.619,140.292 344.5,141C 340.446,141.694 336.446,141.527 332.5,140.5C 327.845,139.834 323.012,139.501 318,139.5C 312.784,139.506 307.951,140.173 303.5,141.5C 301.5,141.5 299.5,141.5 297.5,141.5C 288.194,130.194 277.86,119.86 266.5,110.5 Z"/></g>
<g><path style="opacity:1" fill="#ffbae7" d="M 317.5,110.5 C 321.299,111.015 324.299,112.681 326.5,115.5C 323.223,114.198 320.223,112.531 317.5,110.5 Z"/></g>
<g><path style="opacity:1" fill="#fffbfd" d="M 222.5,139.5 C 225.893,137.773 228.226,135.106 229.5,131.5C 232.271,128.608 235.271,125.942 238.5,123.5C 240.795,122.864 242.461,121.531 243.5,119.5C 247.514,113.994 252.181,113.327 257.5,117.5C 266.839,125.34 275.672,133.674 284,142.5C 284.49,143.793 284.657,145.127 284.5,146.5C 274.018,149.45 265.518,155.45 259,164.5C 255.717,168.496 253.217,172.829 251.5,177.5C 244.618,162.613 233.618,152.28 218.5,146.5C 218.149,143.188 219.482,140.855 222.5,139.5 Z"/></g>
<g><path style="opacity:1" fill="#ff90d9" d="M 291.5,113.5 C 296.484,113.156 300.817,114.489 304.5,117.5C 300.102,116.035 295.768,114.702 291.5,113.5 Z"/></g>
<g><path style="opacity:1" fill="#ff2eb9" d="M 52.5,116.5 C 53.9778,116.238 55.3112,116.571 56.5,117.5C 38.3208,147.704 27.3208,180.371 23.5,215.5C 22.1667,215.5 20.8333,215.5 19.5,215.5C 22.7228,179.831 33.7228,146.831 52.5,116.5 Z"/></g>
<g><path style="opacity:1" fill="#ffb2e5" d="M 203.5,115.5 C 201.245,117.38 198.578,118.38 195.5,118.5C 197.755,116.62 200.422,115.62 203.5,115.5 Z"/></g>
<g><path style="opacity:1" fill="#ff2eb9" d="M 446.5,116.5 C 447.873,116.343 449.207,116.51 450.5,117C 469.38,147.139 480.38,179.972 483.5,215.5C 482.167,215.5 480.833,215.5 479.5,215.5C 475.88,179.972 464.88,146.972 446.5,116.5 Z"/></g>
<g><path style="opacity:1" fill="#b4f1f3" d="M 64.5,119.5 C 65.8734,119.343 67.2068,119.51 68.5,120C 51.0751,148.441 40.7418,179.275 37.5,212.5C 36.1667,212.5 34.8333,212.5 33.5,212.5C 36.8572,179.095 47.1906,148.095 64.5,119.5 Z"/></g>
<g><path style="opacity:1" fill="#b4f1f3" d="M 437.5,119.5 C 438.978,119.238 440.311,119.571 441.5,120.5C 458.523,148.902 468.523,179.569 471.5,212.5C 470.167,212.5 468.833,212.5 467.5,212.5C 465.493,189.63 459.993,167.63 451,146.5C 446.473,137.447 441.973,128.447 437.5,119.5 Z"/></g>
<g><path style="opacity:1" fill="#ffb6e7" d="M 243.5,119.5 C 242.461,121.531 240.795,122.864 238.5,123.5C 239.579,121.457 241.246,120.124 243.5,119.5 Z"/></g>
<g><path style="opacity:1" fill="#ffb8e7" d="M 189.5,121.5 C 187.967,123.245 185.967,124.245 183.5,124.5C 185.033,122.755 187.033,121.755 189.5,121.5 Z"/></g>
<g><path style="opacity:1" fill="#ff5fc6" d="M 168.5,120.5 C 168.5,121.5 168.5,122.5 168.5,123.5C 165.235,123.918 162.235,125.085 159.5,127C 158.257,128.154 157.257,129.488 156.5,131C 155.207,131.49 153.873,131.657 152.5,131.5C 157.312,127.112 162.646,123.445 168.5,120.5 Z"/></g>
<g><path style="opacity:1" fill="#ffcfef" d="M 229.5,131.5 C 228.226,135.106 225.893,137.773 222.5,139.5C 224.372,136.418 226.705,133.751 229.5,131.5 Z"/></g>
<g><path style="opacity:1" fill="#ffcaed" d="M 193.5,140.5 C 184.134,140.279 174.801,140.613 165.5,141.5C 166.263,140.732 167.263,140.232 168.5,140C 177.01,139.177 185.344,139.343 193.5,140.5 Z"/></g>
<g><path style="opacity:1" fill="#ffc2eb" d="M 332.5,140.5 C 322.806,140.307 313.139,140.64 303.5,141.5C 307.951,140.173 312.784,139.506 318,139.5C 323.012,139.501 327.845,139.834 332.5,140.5 Z"/></g>
<g><path style="opacity:1" fill="#ff62cb" d="M 158.5,140.5 C 160.607,141.468 162.941,141.802 165.5,141.5C 174.801,140.613 184.134,140.279 193.5,140.5C 193.5,140.833 193.5,141.167 193.5,141.5C 184.657,141.54 175.824,141.873 167,142.5C 163.833,142.167 160.667,141.833 157.5,141.5C 157.624,140.893 157.957,140.56 158.5,140.5 Z"/></g>
<g><path style="opacity:1" fill="#ff55c6" d="M 342.5,138.5 C 345.042,138.706 346.709,140.039 347.5,142.5C 346.833,142.833 346.167,143.167 345.5,143.5C 329.382,141.531 313.382,140.865 297.5,141.5C 299.5,141.5 301.5,141.5 303.5,141.5C 313.139,140.64 322.806,140.307 332.5,140.5C 336.446,141.527 340.446,141.694 344.5,141C 343.619,140.292 342.953,139.458 342.5,138.5 Z"/></g>
<g><path style="opacity:1" fill="#ff5fca" d="M 168.5,151.5 C 177.657,150.342 186.991,150.176 196.5,151C 197.416,151.278 198.082,151.778 198.5,152.5C 196.5,152.5 194.5,152.5 192.5,152.5C 184.684,151.508 176.684,151.174 168.5,151.5 Z"/></g>
<g><path style="opacity:1" fill="#ff7cd3" d="M 331.5,152.5 C 322.5,152.5 313.5,152.5 304.5,152.5C 309.59,151.035 314.923,150.368 320.5,150.5C 323.833,150.667 327.167,150.833 330.5,151C 331.056,151.383 331.389,151.883 331.5,152.5 Z"/></g>
<g><path style="opacity:1" fill="#ffcbed" d="M 168.5,151.5 C 176.684,151.174 184.684,151.508 192.5,152.5C 180.454,152.432 168.454,153.099 156.5,154.5C 160.36,152.979 164.36,151.979 168.5,151.5 Z"/></g>
<g><path style="opacity:1" fill="#fffdfe" d="M 192.5,152.5 C 194.5,152.5 196.5,152.5 198.5,152.5C 199.097,152.735 199.43,153.235 199.5,154C 198.115,155.597 197.449,157.43 197.5,159.5C 195.744,160.552 195.077,162.219 195.5,164.5C 194.177,167.938 193.51,171.771 193.5,176C 193.667,179.833 193.833,183.667 194,187.5C 194.232,188.737 194.732,189.737 195.5,190.5C 196.167,193.167 196.833,195.833 197.5,198.5C 195.435,198.483 193.435,198.15 191.5,197.5C 182.605,195.619 173.605,195.119 164.5,196C 160.158,197.572 155.824,199.072 151.5,200.5C 151.5,188.167 151.5,175.833 151.5,163.5C 151.963,160.518 152.296,157.518 152.5,154.5C 153.833,154.5 155.167,154.5 156.5,154.5C 168.454,153.099 180.454,152.432 192.5,152.5 Z"/></g>
<g><path style="opacity:1" fill="#fffcfe" d="M 304.5,152.5 C 313.5,152.5 322.5,152.5 331.5,152.5C 337.893,152.683 344.226,153.35 350.5,154.5C 350.336,157.187 350.503,159.854 351,162.5C 351.383,163.056 351.883,163.389 352.5,163.5C 352.5,175.833 352.5,188.167 352.5,200.5C 348.582,200.271 344.915,199.271 341.5,197.5C 341.389,196.883 341.056,196.383 340.5,196C 338.527,195.505 336.527,195.338 334.5,195.5C 327.416,194.874 320.75,195.541 314.5,197.5C 313.5,197.5 312.5,197.5 311.5,197.5C 309.883,198.038 308.216,198.371 306.5,198.5C 306.5,197.5 306.5,196.5 306.5,195.5C 311.013,180.913 310.346,166.58 304.5,152.5 Z"/></g>
<g><path style="opacity:1" fill="#fffbfd" d="M 239.5,179.5 C 241.158,182.975 242.325,186.642 243,190.5C 243.383,191.056 243.883,191.389 244.5,191.5C 244.5,192.833 244.5,194.167 244.5,195.5C 245.407,206.469 245.74,217.469 245.5,228.5C 245.5,230.833 245.5,233.167 245.5,235.5C 231.194,226.357 219.694,214.357 211,199.5C 209.034,195.288 207.534,190.954 206.5,186.5C 206.153,178.064 206.819,169.731 208.5,161.5C 209.038,159.883 209.371,158.216 209.5,156.5C 221.216,157.946 230.382,163.612 237,173.5C 238.559,175.217 239.392,177.217 239.5,179.5 Z"/></g>
<g><path style="opacity:1" fill="#fffbfd" d="M 292.5,156.5 C 292.706,159.238 293.706,161.572 295.5,163.5C 296.434,164.568 296.768,165.901 296.5,167.5C 297.833,173.5 297.833,179.5 296.5,185.5C 295.657,190.206 294.49,194.872 293,199.5C 283.667,213.665 272.167,225.665 258.5,235.5C 257.668,225.524 257.334,215.524 257.5,205.5C 259.136,201.79 259.802,197.79 259.5,193.5C 259.59,187.873 261.257,182.873 264.5,178.5C 267.521,174.798 270.188,170.798 272.5,166.5C 277.817,160.508 284.483,157.175 292.5,156.5 Z"/></g>
<g><path style="opacity:1" fill="#ffa1e0" d="M 350.5,154.5 C 351.657,157.273 352.324,160.273 352.5,163.5C 351.883,163.389 351.383,163.056 351,162.5C 350.503,159.854 350.336,157.187 350.5,154.5 Z"/></g>
<g><path style="opacity:1" fill="#ffb9e7" d="M 292.5,156.5 C 294.818,158.185 295.818,160.519 295.5,163.5C 293.706,161.572 292.706,159.238 292.5,156.5 Z"/></g>
<g><path style="opacity:1" fill="#ff70cb" d="M 126.5,158.5 C 125.475,164.185 122.475,168.519 117.5,171.5C 119.762,166.605 122.762,162.272 126.5,158.5 Z"/></g>
<g><path style="opacity:1" fill="#fff8fc" d="M 138.5,161.5 C 138.342,172.818 138.675,184.152 139.5,195.5C 140.19,199.49 140.357,203.49 140,207.5C 127.597,216.402 117.097,227.069 108.5,239.5C 107.532,237.393 107.198,235.059 107.5,232.5C 108.621,224.796 110.288,217.129 112.5,209.5C 114.213,208.365 114.88,206.698 114.5,204.5C 117.024,195.905 120.691,187.905 125.5,180.5C 126.376,180.631 127.043,180.298 127.5,179.5C 128.578,176.793 129.578,174.126 130.5,171.5C 132.787,167.878 135.453,164.545 138.5,161.5 Z"/></g>
<g><path style="opacity:1" fill="#fff9fd" d="M 364.5,160.5 C 374.069,171.586 381.402,183.92 386.5,197.5C 387.505,200.721 388.339,204.054 389,207.5C 389.383,208.056 389.883,208.389 390.5,208.5C 392.267,211.897 393.267,215.564 393.5,219.5C 393.391,224.468 394.058,229.301 395.5,234C 395.492,235.707 395.158,237.207 394.5,238.5C 387.841,230.508 380.841,222.841 373.5,215.5C 372.415,213.413 370.749,212.08 368.5,211.5C 366.611,210.396 364.945,209.063 363.5,207.5C 363.5,203.833 363.5,200.167 363.5,196.5C 364.827,192.217 365.493,187.551 365.5,182.5C 365.333,177.833 365.167,173.167 365,168.5C 364.722,167.584 364.222,166.918 363.5,166.5C 363.205,164.265 363.539,162.265 364.5,160.5 Z"/></g>
<g><path style="opacity:1" fill="#ffc0ea" d="M 272.5,166.5 C 270.188,170.798 267.521,174.798 264.5,178.5C 265.967,173.7 268.634,169.7 272.5,166.5 Z"/></g>
<g><path style="opacity:1" fill="#ff57c3" d="M 197.5,159.5 C 194.486,173.011 195.152,186.344 199.5,199.5C 199,199.833 198.5,200.167 198,200.5C 195.391,200.162 193.224,199.162 191.5,197.5C 193.435,198.15 195.435,198.483 197.5,198.5C 196.833,195.833 196.167,193.167 195.5,190.5C 194.257,181.783 194.257,173.117 195.5,164.5C 195.077,162.219 195.744,160.552 197.5,159.5 Z"/></g>
<g><path style="opacity:1" fill="#ffa5e1" d="M 195.5,164.5 C 194.257,173.117 194.257,181.783 195.5,190.5C 194.732,189.737 194.232,188.737 194,187.5C 193.833,183.667 193.667,179.833 193.5,176C 193.51,171.771 194.177,167.938 195.5,164.5 Z"/></g>
<g><path style="opacity:1" fill="#ffc3eb" d="M 208.5,161.5 C 206.819,169.731 206.153,178.064 206.5,186.5C 203.469,177.876 204.135,169.543 208.5,161.5 Z"/></g>
<g><path style="opacity:1" fill="#ffb9e8" d="M 296.5,167.5 C 297.991,170.186 298.657,173.186 298.5,176.5C 298.657,179.814 297.991,182.814 296.5,185.5C 297.833,179.5 297.833,173.5 296.5,167.5 Z"/></g>
<g><path style="opacity:1" fill="#ffc8ed" d="M 130.5,171.5 C 129.578,174.126 128.578,176.793 127.5,179.5C 127.043,180.298 126.376,180.631 125.5,180.5C 126.41,177.008 128.076,174.008 130.5,171.5 Z"/></g>
<g><path style="opacity:1" fill="#ffcdee" d="M 363.5,166.5 C 364.222,166.918 364.722,167.584 365,168.5C 365.167,173.167 365.333,177.833 365.5,182.5C 365.493,187.551 364.827,192.217 363.5,196.5C 364.833,186.5 364.833,176.5 363.5,166.5 Z"/></g>
<g><path style="opacity:1" fill="#ffa6e1" d="M 151.5,163.5 C 151.5,175.833 151.5,188.167 151.5,200.5C 148.903,188.162 148.903,175.828 151.5,163.5 Z"/></g>
<g><path style="opacity:1" fill="#ff8eda" d="M 138.5,161.5 C 138.56,160.957 138.893,160.624 139.5,160.5C 139.833,162 140.167,163.5 140.5,165C 139.616,175.146 139.283,185.313 139.5,195.5C 138.675,184.152 138.342,172.818 138.5,161.5 Z"/></g>
<g><path style="opacity:1" fill="#ff83d5" d="M 239.5,179.5 C 242.507,182.833 244.174,186.833 244.5,191.5C 243.883,191.389 243.383,191.056 243,190.5C 242.325,186.642 241.158,182.975 239.5,179.5 Z"/></g>
<g><path style="opacity:1" fill="#ff64cb" d="M 364.5,160.5 C 363.539,162.265 363.205,164.265 363.5,166.5C 364.833,176.5 364.833,186.5 363.5,196.5C 363.5,200.167 363.5,203.833 363.5,207.5C 362.173,191.662 362.173,175.662 363.5,159.5C 364.107,159.624 364.44,159.957 364.5,160.5 Z"/></g>
<g><path style="opacity:1" fill="#ff83d4" d="M 390.5,180.5 C 393.247,183.723 395.247,187.389 396.5,191.5C 395.542,191.047 394.708,190.381 394,189.5C 392.36,186.639 391.193,183.639 390.5,180.5 Z"/></g>
<g><path style="opacity:1" fill="#ff7ad3" d="M 334.5,195.5 C 334.5,195.833 334.5,196.167 334.5,196.5C 327.776,196.244 321.109,196.577 314.5,197.5C 320.75,195.541 327.416,194.874 334.5,195.5 Z"/></g>
<g><path style="opacity:1" fill="#ffbee9" d="M 334.5,196.5 C 334.5,196.167 334.5,195.833 334.5,195.5C 336.527,195.338 338.527,195.505 340.5,196C 341.056,196.383 341.389,196.883 341.5,197.5C 339.139,197.326 336.806,196.993 334.5,196.5 Z"/></g>
<g><path style="opacity:1" fill="#ffa5e1" d="M 306.5,195.5 C 306.5,196.5 306.5,197.5 306.5,198.5C 308.216,198.371 309.883,198.038 311.5,197.5C 309.919,199.086 307.919,200.086 305.5,200.5C 304.753,198.711 305.086,197.044 306.5,195.5 Z"/></g>
<g><path style="opacity:1" fill="#ffc0ea" d="M 259.5,193.5 C 259.802,197.79 259.136,201.79 257.5,205.5C 257.5,204.167 257.5,202.833 257.5,201.5C 257.565,198.572 258.232,195.905 259.5,193.5 Z"/></g>
<g><path style="opacity:1" fill="#ffaee4" d="M 386.5,197.5 C 388.82,200.677 390.154,204.344 390.5,208.5C 389.883,208.389 389.383,208.056 389,207.5C 388.339,204.054 387.505,200.721 386.5,197.5 Z"/></g>
<g><path style="opacity:1" fill="#ffc6ec" d="M 184.5,208.5 C 174.369,206.662 164.702,207.995 155.5,212.5C 155.629,214.216 155.962,215.883 156.5,217.5C 154.384,215.912 154.051,213.912 155.5,211.5C 164.803,206.376 174.47,205.376 184.5,208.5 Z"/></g>
<g><path style="opacity:1" fill="#fffcfe" d="M 184.5,208.5 C 188.046,208.559 191.379,209.392 194.5,211C 209.147,218.155 221.147,228.321 230.5,241.5C 230.539,242.583 230.873,243.583 231.5,244.5C 215.033,247.26 198.699,246.593 182.5,242.5C 181.833,242.5 181.167,242.5 180.5,242.5C 177.075,239.441 173.075,237.108 168.5,235.5C 162.502,230.839 158.502,224.839 156.5,217.5C 155.962,215.883 155.629,214.216 155.5,212.5C 164.702,207.995 174.369,206.662 184.5,208.5 Z"/></g>
<g><path style="opacity:1" fill="#ffb7e7" d="M 338.5,208.5 C 331.179,207.386 323.846,207.386 316.5,208.5C 320.054,207.016 323.888,206.349 328,206.5C 331.805,206.304 335.305,206.97 338.5,208.5 Z"/></g>
<g><path style="opacity:1" fill="#ffbae8" d="M 114.5,204.5 C 114.88,206.698 114.213,208.365 112.5,209.5C 112.12,207.302 112.787,205.635 114.5,204.5 Z"/></g>
<g><path style="opacity:1" fill="#fffbfd" d="M 338.5,208.5 C 341.593,210.109 344.927,211.109 348.5,211.5C 343.874,231.122 331.541,242.456 311.5,245.5C 307.486,245.334 303.486,245.501 299.5,246C 298.584,246.278 297.918,246.778 297.5,247.5C 289.493,247.666 281.493,247.5 273.5,247C 272.062,246.781 270.729,246.281 269.5,245.5C 276.918,235.912 285.252,227.078 294.5,219C 298.775,215.697 303.442,213.197 308.5,211.5C 311.385,211.357 313.718,210.357 315.5,208.5C 315.833,208.5 316.167,208.5 316.5,208.5C 323.846,207.386 331.179,207.386 338.5,208.5 Z"/></g>
<g><path style="opacity:1" fill="#ffb3e6" d="M 315.5,208.5 C 313.718,210.357 311.385,211.357 308.5,211.5C 310.395,209.759 312.728,208.759 315.5,208.5 Z"/></g>
<g><path style="opacity:1" fill="#ffb8e7" d="M 368.5,211.5 C 370.749,212.08 372.415,213.413 373.5,215.5C 371.251,214.92 369.585,213.587 368.5,211.5 Z"/></g>
<g><path style="opacity:1" fill="#ffa7e2" d="M 244.5,195.5 C 245.268,196.263 245.768,197.263 246,198.5C 246.825,208.675 246.658,218.675 245.5,228.5C 245.74,217.469 245.407,206.469 244.5,195.5 Z"/></g>
<g><path style="opacity:1" fill="#ffbbe8" d="M 145.5,221.5 C 144.85,221.196 144.183,220.863 143.5,220.5C 142.378,221.63 141.044,222.297 139.5,222.5C 141.301,219.201 143.301,218.868 145.5,221.5 Z"/></g>
<g><path style="opacity:1" fill="#fffafd" d="M 145.5,221.5 C 150.257,233.592 158.257,242.925 169.5,249.5C 171.603,250.65 173.603,251.983 175.5,253.5C 172.522,254.48 170.189,256.147 168.5,258.5C 162.678,260.651 158.012,264.317 154.5,269.5C 152.413,270.585 151.08,272.251 150.5,274.5C 148.715,278.07 146.882,281.736 145,285.5C 143.951,286.517 142.784,286.684 141.5,286C 133.694,279.527 126.527,272.36 120,264.5C 117.228,260.612 114.728,256.612 112.5,252.5C 115.044,251.292 116.378,249.292 116.5,246.5C 122.81,237.223 130.477,229.223 139.5,222.5C 141.044,222.297 142.378,221.63 143.5,220.5C 144.183,220.863 144.85,221.196 145.5,221.5 Z"/></g>
<g><path style="opacity:1" fill="#fffafd" d="M 390.5,254.5 C 388.453,256.55 386.786,258.883 385.5,261.5C 378.4,270.435 370.4,278.601 361.5,286C 360.552,286.483 359.552,286.649 358.5,286.5C 354.771,274.925 347.771,265.758 337.5,259C 334.316,257.243 330.982,255.743 327.5,254.5C 326.614,253.675 326.281,252.675 326.5,251.5C 337.245,248.117 345.912,241.783 352.5,232.5C 354.326,230.853 355.66,228.853 356.5,226.5C 356.993,224.194 357.326,221.861 357.5,219.5C 358.873,219.343 360.207,219.51 361.5,220C 371.345,229.179 380.511,239.012 389,249.5C 390.009,251.025 390.509,252.692 390.5,254.5 Z"/></g>
<g><path style="opacity:1" fill="#ffc1ea" d="M 403.5,214.5 C 405.026,216.45 406.026,218.783 406.5,221.5C 407.407,226.477 408.073,231.477 408.5,236.5C 407.778,236.082 407.278,235.416 407,234.5C 406.387,227.714 405.221,221.048 403.5,214.5 Z"/></g>
<g><path style="opacity:1" fill="#839eae" d="M 19.5,233.5 C 18.8343,230.972 18.1676,228.306 17.5,225.5C 16.531,231.646 17.8644,237.312 21.5,242.5C 20.6446,243.293 19.8113,242.96 19,241.5C 16.7275,236.41 15.3942,231.077 15,225.5C 14.1218,231.435 14.9552,237.101 17.5,242.5C 15.1409,241.824 12.8076,240.991 10.5,240C 16.9453,240.699 16.9453,239.699 10.5,237C 12.3684,236.101 13.3684,234.601 13.5,232.5C 12.8477,230.595 12.6811,228.595 13,226.5C 11.1629,229.509 9.32961,232.509 7.5,235.5C 6.60433,234.494 5.93767,234.494 5.5,235.5C 6.5,236.333 7.5,237.167 8.5,238C 7.26236,237.923 6.26236,238.089 5.5,238.5C 6.77013,239.288 7.77013,240.288 8.5,241.5C 7.69808,242.952 7.19808,244.618 7,246.5C 3.12498,239.422 3.95832,232.922 9.5,227C 12.5358,224.994 15.8691,224.16 19.5,224.5C 19.5,227.5 19.5,230.5 19.5,233.5 Z"/></g>
<g><path style="opacity:1" fill="#c1ced6" d="M 470.5,247.5 C 469.5,247.167 468.833,246.5 468.5,245.5C 469.973,244.928 471.307,244.095 472.5,243C 470.998,242.417 469.665,241.584 468.5,240.5C 469.833,239.5 469.833,238.5 468.5,237.5C 468.833,237.167 469.167,236.833 469.5,236.5C 470.869,238.124 472.536,238.624 474.5,238C 473.604,235.821 472.271,233.988 470.5,232.5C 471,231.5 471.5,230.5 472,229.5C 474.374,231.539 476.374,233.872 478,236.5C 480.101,233.009 479.934,229.676 477.5,226.5C 478.689,225.571 480.022,225.238 481.5,225.5C 481.833,234.833 482.167,234.833 482.5,225.5C 483.833,225.5 485.167,225.5 486.5,225.5C 487.243,233.984 484.576,241.15 478.5,247C 477.833,247.667 477.167,247.667 476.5,247C 477.5,246 478.5,245 479.5,244C 478.833,243.667 478.167,243.333 477.5,243C 478.451,242.282 478.617,241.449 478,240.5C 476.833,241.667 475.667,242.833 474.5,244C 476.301,244.317 476.634,244.984 475.5,246C 473.688,247.313 472.021,247.813 470.5,247.5 Z"/></g>
<g><path style="opacity:1" fill="#c5d2d9" d="M 27.5,227.5 C 28.5,227.833 29.1667,228.5 29.5,229.5C 29.8769,231.258 30.5435,232.925 31.5,234.5C 29.939,235.347 28.439,235.014 27,233.5C 26.2828,234.044 25.7828,234.711 25.5,235.5C 24.6365,236.463 23.9698,236.463 23.5,235.5C 26.2896,232.078 26.123,231.411 23,233.5C 22.3828,232.551 22.5494,231.718 23.5,231C 22.6919,230.692 22.0253,230.192 21.5,229.5C 22.8333,228.5 22.8333,227.5 21.5,226.5C 23.4698,225.557 24.9698,226.224 26,228.5C 26.3826,227.944 26.8826,227.611 27.5,227.5 Z"/></g>
<g><path style="opacity:1" fill="#ffb3e5" d="M 356.5,226.5 C 355.66,228.853 354.326,230.853 352.5,232.5C 352.845,229.802 354.178,227.802 356.5,226.5 Z"/></g>
<g><path style="opacity:1" fill="#859faf" d="M 27.5,227.5 C 26.8826,227.611 26.3826,227.944 26,228.5C 24.9698,226.224 23.4698,225.557 21.5,226.5C 22.8333,227.5 22.8333,228.5 21.5,229.5C 22.0253,230.192 22.6919,230.692 23.5,231C 22.5494,231.718 22.3828,232.551 23,233.5C 26.123,231.411 26.2896,232.078 23.5,235.5C 23.9698,236.463 24.6365,236.463 25.5,235.5C 24.1667,237.167 24.1667,238.833 25.5,240.5C 21.4557,236.028 19.7891,230.695 20.5,224.5C 23.491,224.166 25.8243,225.166 27.5,227.5 Z"/></g>
<g><path style="opacity:1" fill="#ff6ece" d="M 257.5,201.5 C 257.5,202.833 257.5,204.167 257.5,205.5C 257.334,215.524 257.668,225.524 258.5,235.5C 257.171,230.208 256.504,224.542 256.5,218.5C 256.501,212.657 256.834,206.99 257.5,201.5 Z"/></g>
<g><path style="opacity:1" fill="#bfcdd5" d="M 492.5,229.5 C 493.906,229.973 494.573,230.973 494.5,232.5C 493.449,233.222 492.782,234.222 492.5,235.5C 491.178,235.33 490.011,235.663 489,236.5C 488.056,235.737 487.556,234.737 487.5,233.5C 488.608,231.482 488.775,229.482 488,227.5C 489.385,228.551 490.385,229.884 491,231.5C 491.278,230.584 491.778,229.918 492.5,229.5 Z"/></g>
<g><path style="opacity:1" fill="#ffafe4" d="M 393.5,219.5 C 396.097,226.84 397.264,234.507 397,242.5C 395.915,241.264 395.082,239.931 394.5,238.5C 395.158,237.207 395.492,235.707 395.5,234C 394.058,229.301 393.391,224.468 393.5,219.5 Z"/></g>
<g><path style="opacity:1" fill="#dbe3e8" d="M 25.5,235.5 C 27.6477,235.389 27.981,236.056 26.5,237.5C 28.3649,238.666 30.0316,238.333 31.5,236.5C 31.8333,236.833 32.1667,237.167 32.5,237.5C 31.8555,238.732 31.6888,240.065 32,241.5C 30.1921,239.442 28.0254,239.108 25.5,240.5C 24.1667,238.833 24.1667,237.167 25.5,235.5 Z"/></g>
<g><path style="opacity:1" fill="#ff7ed4" d="M 107.5,232.5 C 107.198,235.059 107.532,237.393 108.5,239.5C 106.872,243.619 105.872,243.452 105.5,239C 105.497,236.516 106.163,234.349 107.5,232.5 Z"/></g>
<g><path style="opacity:1" fill="#d2dce2" d="M 17.5,242.5 C 17.2648,243.097 16.7648,243.43 16,243.5C 13.5667,242.521 11.0667,241.855 8.5,241.5C 7.77013,240.288 6.77013,239.288 5.5,238.5C 6.26236,238.089 7.26236,237.923 8.5,238C 7.5,237.167 6.5,236.333 5.5,235.5C 5.93767,234.494 6.60433,234.494 7.5,235.5C 9.32961,232.509 11.1629,229.509 13,226.5C 12.6811,228.595 12.8477,230.595 13.5,232.5C 13.3684,234.601 12.3684,236.101 10.5,237C 16.9453,239.699 16.9453,240.699 10.5,240C 12.8076,240.991 15.1409,241.824 17.5,242.5 Z"/></g>
<g><path style="opacity:1" fill="#ffcfee" d="M 168.5,235.5 C 173.075,237.108 177.075,239.441 180.5,242.5C 176.008,240.903 172.008,238.57 168.5,235.5 Z"/></g>
<g><path style="opacity:1" fill="#819cac" d="M 494.5,232.5 C 495.972,234.117 496.639,236.117 496.5,238.5C 496.41,241.336 495.743,244.003 494.5,246.5C 493.698,245.048 493.198,243.382 493,241.5C 492.396,243.686 491.23,243.852 489.5,242C 491.664,241.086 493.664,239.919 495.5,238.5C 495.121,236.787 494.121,235.787 492.5,235.5C 492.782,234.222 493.449,233.222 494.5,232.5 Z"/></g>
<g><path style="opacity:1" fill="#cbd6dd" d="M 19.5,233.5 C 21.0576,237.605 23.3909,241.271 26.5,244.5C 27.0577,245.79 28.0577,246.623 29.5,247C 27.3582,247.438 26.0249,248.272 25.5,249.5C 22.8587,247.196 20.192,244.862 17.5,242.5C 14.9552,237.101 14.1218,231.435 15,225.5C 15.3942,231.077 16.7275,236.41 19,241.5C 19.8113,242.96 20.6446,243.293 21.5,242.5C 17.8644,237.312 16.531,231.646 17.5,225.5C 18.1676,228.306 18.8343,230.972 19.5,233.5 Z"/></g>
<g><path style="opacity:1" fill="#ffd6f1" d="M 230.5,241.5 C 231.965,242.406 232.965,243.739 233.5,245.5C 233.043,246.298 232.376,246.631 231.5,246.5C 220.531,247.407 209.531,247.74 198.5,247.5C 193.405,246.81 188.405,245.643 183.5,244C 182.944,243.617 182.611,243.117 182.5,242.5C 198.699,246.593 215.033,247.26 231.5,244.5C 230.873,243.583 230.539,242.583 230.5,241.5 Z"/></g>
<g><path style="opacity:1" fill="#ffcdee" d="M 311.5,245.5 C 307.081,246.972 302.414,247.638 297.5,247.5C 297.918,246.778 298.584,246.278 299.5,246C 303.486,245.501 307.486,245.334 311.5,245.5 Z"/></g>
<g><path style="opacity:1" fill="#ff76d2" d="M 231.5,246.5 C 226.376,247.829 220.876,248.495 215,248.5C 209.323,248.499 203.823,248.166 198.5,247.5C 209.531,247.74 220.531,247.407 231.5,246.5 Z"/></g>
<g><path style="opacity:1" fill="#bdcbd4" d="M 492.5,235.5 C 494.121,235.787 495.121,236.787 495.5,238.5C 493.664,239.919 491.664,241.086 489.5,242C 491.23,243.852 492.396,243.686 493,241.5C 493.198,243.382 493.698,245.048 494.5,246.5C 492.977,249.364 490.643,251.031 487.5,251.5C 486.624,251.631 485.957,251.298 485.5,250.5C 486.374,248.253 486.708,245.92 486.5,243.5C 482.9,242.821 483.233,241.987 487.5,241C 486.692,240.692 486.025,240.192 485.5,239.5C 488.05,238.396 490.383,237.063 492.5,235.5 Z"/></g>
<g><path style="opacity:1" fill="#ffa9e3" d="M 95.5,235.5 C 95.285,248.856 95.6183,262.189 96.5,275.5C 95.8826,275.389 95.3826,275.056 95,274.5C 94.1731,261.327 94.3398,248.327 95.5,235.5 Z"/></g>
<g><path style="opacity:1" fill="#ffaee4" d="M 116.5,246.5 C 116.378,249.292 115.044,251.292 112.5,252.5C 113.449,250.223 114.782,248.223 116.5,246.5 Z"/></g>
<g><path style="opacity:1" fill="#ff64c9" d="M 169.5,249.5 C 172.167,249.833 174.833,250.167 177.5,250.5C 177.5,252.167 177.5,253.833 177.5,255.5C 174.216,255.681 171.216,256.681 168.5,258.5C 170.189,256.147 172.522,254.48 175.5,253.5C 173.603,251.983 171.603,250.65 169.5,249.5 Z"/></g>
<g><path style="opacity:1" fill="#99afbc" d="M 29.5,229.5 C 32.7015,231.576 34.0349,234.576 33.5,238.5C 33.6117,243.11 31.9451,246.943 28.5,250C 29.8333,252 29.8333,254 28.5,256C 21.8273,256.12 15.1606,256.12 8.5,256C 7.92876,257.205 7.26209,258.372 6.5,259.5C 5.24604,257.741 5.57938,256.241 7.5,255C 9.71477,253.956 12.0481,253.29 14.5,253C 11.6384,252.07 9.30505,250.403 7.5,248C 8.99608,247.493 10.1627,247.993 11,249.5C 11.9745,247.122 12.6411,247.456 13,250.5C 13.7175,251.451 14.5509,251.617 15.5,251C 14.7362,248.931 14.2362,246.764 14,244.5C 12.6054,243.185 11.6054,243.519 11,245.5C 10.0855,241.815 9.41888,242.148 9,246.5C 8.50649,244.866 8.33982,243.199 8.5,241.5C 11.0667,241.855 13.5667,242.521 16,243.5C 16.7648,243.43 17.2648,243.097 17.5,242.5C 20.192,244.862 22.8587,247.196 25.5,249.5C 26.0249,248.272 27.3582,247.438 29.5,247C 28.0577,246.623 27.0577,245.79 26.5,244.5C 27.8474,245.028 29.1807,245.195 30.5,245C 28.3825,243.951 26.7158,242.451 25.5,240.5C 28.0254,239.108 30.1921,239.442 32,241.5C 31.6888,240.065 31.8555,238.732 32.5,237.5C 32.1667,237.167 31.8333,236.833 31.5,236.5C 30.0316,238.333 28.3649,238.666 26.5,237.5C 27.981,236.056 27.6477,235.389 25.5,235.5C 25.7828,234.711 26.2828,234.044 27,233.5C 28.439,235.014 29.939,235.347 31.5,234.5C 30.5435,232.925 29.8769,231.258 29.5,229.5 Z"/></g>
<g><path style="opacity:1" fill="#f3f5f7" d="M 25.5,249.5 C 25.8212,251.048 26.8212,251.715 28.5,251.5C 28.67,252.822 28.3366,253.989 27.5,255C 23.7387,255.738 20.0721,255.405 16.5,254C 19.4512,253.904 22.1178,253.071 24.5,251.5C 23.019,250.056 23.3523,249.389 25.5,249.5 Z"/></g>
<g><path style="opacity:1" fill="#9db2bf" d="M 492.5,229.5 C 491.778,229.918 491.278,230.584 491,231.5C 490.385,229.884 489.385,228.551 488,227.5C 488.775,229.482 488.608,231.482 487.5,233.5C 487.556,234.737 488.056,235.737 489,236.5C 490.011,235.663 491.178,235.33 492.5,235.5C 490.383,237.063 488.05,238.396 485.5,239.5C 486.025,240.192 486.692,240.692 487.5,241C 483.233,241.987 482.9,242.821 486.5,243.5C 486.708,245.92 486.374,248.253 485.5,250.5C 485.957,251.298 486.624,251.631 487.5,251.5C 487.082,252.222 486.416,252.722 485.5,253C 488.043,253.14 490.377,253.806 492.5,255C 486.872,255.277 481.372,256.111 476,257.5C 474.108,256.87 472.441,255.87 471,254.5C 470.289,252.633 470.789,251.133 472.5,250C 471.619,249.292 470.953,248.458 470.5,247.5C 472.021,247.813 473.688,247.313 475.5,246C 476.634,244.984 476.301,244.317 474.5,244C 475.667,242.833 476.833,241.667 478,240.5C 478.617,241.449 478.451,242.282 477.5,243C 478.167,243.333 478.833,243.667 479.5,244C 478.5,245 477.5,246 476.5,247C 477.167,247.667 477.833,247.667 478.5,247C 484.576,241.15 487.243,233.984 486.5,225.5C 485.167,225.5 483.833,225.5 482.5,225.5C 482.167,234.833 481.833,234.833 481.5,225.5C 480.022,225.238 478.689,225.571 477.5,226.5C 479.934,229.676 480.101,233.009 478,236.5C 476.374,233.872 474.374,231.539 472,229.5C 471.5,230.5 471,231.5 470.5,232.5C 472.271,233.988 473.604,235.821 474.5,238C 472.536,238.624 470.869,238.124 469.5,236.5C 469.167,236.833 468.833,237.167 468.5,237.5C 469.833,238.5 469.833,239.5 468.5,240.5C 469.665,241.584 470.998,242.417 472.5,243C 471.307,244.095 469.973,244.928 468.5,245.5C 465.44,229.731 471.774,222.897 487.5,225C 489.618,226.049 491.284,227.549 492.5,229.5 Z"/></g>
<g><path style="opacity:1" fill="#f9fafb" d="M 472.5,251.5 C 476.358,252.839 480.358,253.673 484.5,254C 480.928,255.405 477.261,255.738 473.5,255C 472.663,253.989 472.33,252.822 472.5,251.5 Z"/></g>
<g><path style="opacity:1" fill="#ffb4e6" d="M 233.5,260.5 C 220.16,259.211 206.826,259.211 193.5,260.5C 194.263,259.732 195.263,259.232 196.5,259C 208.167,258.333 219.833,258.333 231.5,259C 232.416,259.278 233.082,259.778 233.5,260.5 Z"/></g>
<g><path style="opacity:1" fill="#ffb6e6" d="M 299.5,258.5 C 299.5,258.833 299.5,259.167 299.5,259.5C 289.468,259.271 279.468,259.604 269.5,260.5C 269.918,259.778 270.584,259.278 271.5,259C 280.827,258.5 290.161,258.334 299.5,258.5 Z"/></g>
<g><path style="opacity:1" fill="#ff7bd3" d="M 299.5,259.5 C 299.5,259.167 299.5,258.833 299.5,258.5C 303.79,258.198 307.79,258.864 311.5,260.5C 307.466,260.495 303.466,260.162 299.5,259.5 Z"/></g>
<g><path style="opacity:1" fill="#fffbfd" d="M 233.5,260.5 C 223.622,275.049 210.956,286.383 195.5,294.5C 181.792,301.07 168.125,301.07 154.5,294.5C 154.325,292.379 154.659,290.379 155.5,288.5C 162.745,271.935 175.412,262.601 193.5,260.5C 206.826,259.211 220.16,259.211 233.5,260.5 Z"/></g>
<g><path style="opacity:1" fill="#ff94db" d="M 390.5,254.5 C 389.99,257.674 388.323,260.008 385.5,261.5C 386.786,258.883 388.453,256.55 390.5,254.5 Z"/></g>
<g><path style="opacity:1" fill="#fffbfd" d="M 299.5,259.5 C 303.466,260.162 307.466,260.495 311.5,260.5C 321.112,262.807 329.778,266.973 337.5,273C 343.979,278.793 347.646,285.96 348.5,294.5C 345.921,295.656 343.255,296.656 340.5,297.5C 330.794,298.697 321.127,298.364 311.5,296.5C 306.096,294.862 301.096,292.362 296.5,289C 288.337,281.837 280.504,274.337 273,266.5C 271.579,264.595 270.412,262.595 269.5,260.5C 279.468,259.604 289.468,259.271 299.5,259.5 Z"/></g>
<g><path style="opacity:1" fill="#ff2bb9" d="M 18.5,267.5 C 20.451,267.227 21.951,267.893 23,269.5C 33.0613,335.499 64.8946,387.999 118.5,427C 116.167,427.667 113.833,427.667 111.5,427C 58.7651,386.721 27.7651,333.555 18.5,267.5 Z"/></g>
<g><path style="opacity:1" fill="#b3f1f2" d="M 32.5,267.5 C 33.8333,267.5 35.1667,267.5 36.5,267.5C 45.665,330.755 75.9984,380.922 127.5,418C 125.167,418.667 122.833,418.667 120.5,418C 70.7315,379.987 41.3982,329.82 32.5,267.5 Z"/></g>
<g><path style="opacity:1" fill="#b2f0f2" d="M 468.5,267.5 C 469.833,267.5 471.167,267.5 472.5,267.5C 463.605,329.813 434.272,379.979 384.5,418C 382.167,418.667 379.833,418.667 377.5,418C 429.131,380.937 459.464,330.77 468.5,267.5 Z"/></g>
<g><path style="opacity:1" fill="#ff2cb9" d="M 480.5,267.5 C 481.833,267.5 483.167,267.5 484.5,267.5C 475.233,333.56 444.233,386.727 391.5,427C 389.167,427.667 386.833,427.667 384.5,427C 438.598,387.332 470.598,334.165 480.5,267.5 Z"/></g>
<g><path style="opacity:1" fill="#fff8fc" d="M 394.5,267.5 C 395.16,268.964 395.493,270.631 395.5,272.5C 394.627,278.862 393.627,285.195 392.5,291.5C 389.73,301.303 386.064,310.636 381.5,319.5C 379.755,321.033 378.755,323.033 378.5,325.5C 375.882,331.016 372.549,336.016 368.5,340.5C 367.017,342.094 365.517,343.76 364,345.5C 363.503,343.19 363.337,340.857 363.5,338.5C 364.268,337.737 364.768,336.737 365,335.5C 365.667,325.833 365.667,316.167 365,306.5C 364.617,305.944 364.117,305.611 363.5,305.5C 363.5,303.167 363.5,300.833 363.5,298.5C 375.194,289.473 385.527,279.14 394.5,267.5 Z"/></g>
<g><path style="opacity:1" fill="#fffafd" d="M 108.5,267.5 C 109.694,271.363 112.027,274.363 115.5,276.5C 123.148,284.145 131.148,291.479 139.5,298.5C 138.117,306.408 137.451,314.408 137.5,322.5C 137.375,329.584 138.041,336.584 139.5,343.5C 139.457,344.416 139.124,345.083 138.5,345.5C 123.566,325.718 113.233,303.718 107.5,279.5C 107.183,275.298 107.517,271.298 108.5,267.5 Z"/></g>
<g><path style="opacity:1" fill="#ff72d0" d="M 108.5,267.5 C 107.517,271.298 107.183,275.298 107.5,279.5C 105.779,274.689 105.446,269.689 106.5,264.5C 107.919,265.005 108.585,266.005 108.5,267.5 Z"/></g>
<g><path style="opacity:1" fill="#ffccee" d="M 108.5,267.5 C 111.209,270.208 113.542,273.208 115.5,276.5C 112.027,274.363 109.694,271.363 108.5,267.5 Z"/></g>
<g><path style="opacity:1" fill="#ff98dc" d="M 154.5,269.5 C 153.92,271.749 152.587,273.415 150.5,274.5C 151.08,272.251 152.413,270.585 154.5,269.5 Z"/></g>
<g><path style="opacity:1" fill="#fffbfd" d="M 244.5,305.5 C 243.893,323.267 236.227,337.1 221.5,347C 218.619,348.179 215.786,349.346 213,350.5C 211.11,350.215 209.777,349.215 209,347.5C 208.439,344.721 207.606,342.054 206.5,339.5C 205.693,333.536 205.36,327.536 205.5,321.5C 206.155,318.036 207.155,314.703 208.5,311.5C 211.77,309.555 213.437,306.555 213.5,302.5C 220.42,291.578 229.087,282.245 239.5,274.5C 240.583,274.461 241.583,274.127 242.5,273.5C 243.251,274.376 243.751,275.376 244,276.5C 244.5,286.161 244.666,295.828 244.5,305.5 Z"/></g>
<g><path style="opacity:1" fill="#fffbfd" d="M 291.5,306.5 C 292.083,309.947 293.416,312.947 295.5,315.5C 296.434,316.568 296.768,317.901 296.5,319.5C 297.833,326.167 297.833,332.833 296.5,339.5C 295.641,343.274 294.641,346.941 293.5,350.5C 283.091,348.953 274.591,343.953 268,335.5C 262.066,325.707 258.566,315.04 257.5,303.5C 257.263,292.802 257.596,282.135 258.5,271.5C 258.56,270.957 258.893,270.624 259.5,270.5C 267.151,277.317 274.651,284.317 282,291.5C 285.812,296.134 288.979,301.134 291.5,306.5 Z"/></g>
<g><path style="opacity:1" fill="#ff80d3" d="M 392.5,291.5 C 393.627,285.195 394.627,278.862 395.5,272.5C 395.493,270.631 395.16,268.964 394.5,267.5C 395.082,266.069 395.915,264.736 397,263.5C 397.143,272.599 396.143,281.599 394,290.5C 393.617,291.056 393.117,291.389 392.5,291.5 Z"/></g>
<g><path style="opacity:1" fill="#ff84d6" d="M 258.5,271.5 C 257.596,282.135 257.263,292.802 257.5,303.5C 256.342,293.675 256.175,283.675 257,273.5C 257.278,272.584 257.778,271.918 258.5,271.5 Z"/></g>
<g><path style="opacity:1" fill="#ffccee" d="M 244.5,305.5 C 244.666,295.828 244.5,286.161 244,276.5C 243.751,275.376 243.251,274.376 242.5,273.5C 241.583,274.127 240.583,274.461 239.5,274.5C 241.447,270.054 243.614,269.721 246,273.5C 246.667,282.833 246.667,292.167 246,301.5C 245.79,303.058 245.29,304.391 244.5,305.5 Z"/></g>
<g><path style="opacity:1" fill="#ffc6ec" d="M 408.5,265.5 C 408.274,272.208 407.608,278.875 406.5,285.5C 406.062,288.295 405.062,290.628 403.5,292.5C 405.438,283.429 407.105,274.429 408.5,265.5 Z"/></g>
<g><path style="opacity:1" fill="#ffd9f2" d="M 311.5,296.5 C 321.127,298.364 330.794,298.697 340.5,297.5C 338.039,298.531 335.373,299.198 332.5,299.5C 327.13,299.608 321.797,299.275 316.5,298.5C 314.302,298.88 312.635,298.213 311.5,296.5 Z"/></g>
<g><path style="opacity:1" fill="#ff64ca" d="M 155.5,288.5 C 154.659,290.379 154.325,292.379 154.5,294.5C 168.125,301.07 181.792,301.07 195.5,294.5C 193.88,296.984 191.547,298.484 188.5,299C 176.335,301.864 164.668,300.697 153.5,295.5C 152.99,292.612 153.656,290.279 155.5,288.5 Z"/></g>
<g><path style="opacity:1" fill="#ff88d8" d="M 316.5,298.5 C 321.797,299.275 327.13,299.608 332.5,299.5C 328.019,300.648 323.352,300.815 318.5,300C 317.584,299.722 316.918,299.222 316.5,298.5 Z"/></g>
<g><path style="opacity:1" fill="#fffdfe" d="M 153.5,306.5 C 156.936,307.192 160.27,308.192 163.5,309.5C 163.611,310.117 163.944,310.617 164.5,311C 171.5,311.667 178.5,311.667 185.5,311C 187.315,310.243 188.981,309.41 190.5,308.5C 192.117,307.962 193.784,307.629 195.5,307.5C 196.492,307.328 197.158,307.662 197.5,308.5C 196.135,310.591 195.468,312.924 195.5,315.5C 194.178,318.768 193.511,322.435 193.5,326.5C 193.501,330.349 193.835,334.016 194.5,337.5C 195.095,342.222 196.429,346.555 198.5,350.5C 198.5,351.5 198.5,352.5 198.5,353.5C 183.324,353.997 168.324,353.331 153.5,351.5C 153.664,348.813 153.497,346.146 153,343.5C 152.722,342.584 152.222,341.918 151.5,341.5C 151.5,340.833 151.5,340.167 151.5,339.5C 150.856,328.116 151.523,317.116 153.5,306.5 Z"/></g>
<g><path style="opacity:1" fill="#ff90da" d="M 197.5,308.5 C 197.158,307.662 196.492,307.328 195.5,307.5C 196.427,305.524 197.76,305.191 199.5,306.5C 199.145,307.522 198.478,308.189 197.5,308.5 Z"/></g>
<g><path style="opacity:1" fill="#fffcfe" d="M 338.5,353.5 C 327.167,353.5 315.833,353.5 304.5,353.5C 306.688,347.715 308.021,341.715 308.5,335.5C 309.653,329.347 309.82,323.014 309,316.5C 308.617,315.944 308.117,315.611 307.5,315.5C 306.833,312.833 306.167,310.167 305.5,307.5C 308.5,308.167 311.5,308.833 314.5,309.5C 314.611,310.117 314.944,310.617 315.5,311C 322.833,311.667 330.167,311.667 337.5,311C 340.501,310.262 343.168,309.096 345.5,307.5C 347.746,306.545 350.079,305.878 352.5,305.5C 352.985,321.247 352.318,336.914 350.5,352.5C 346.466,352.505 342.466,352.838 338.5,353.5 Z"/></g>
<g><path style="opacity:1" fill="#ffcbed" d="M 213.5,302.5 C 213.437,306.555 211.77,309.555 208.5,311.5C 209.802,308.223 211.469,305.223 213.5,302.5 Z"/></g>
<g><path style="opacity:1" fill="#ffb1e5" d="M 190.5,308.5 C 188.981,309.41 187.315,310.243 185.5,311C 178.5,311.667 171.5,311.667 164.5,311C 163.944,310.617 163.611,310.117 163.5,309.5C 172.566,310.978 181.566,310.644 190.5,308.5 Z"/></g>
<g><path style="opacity:1" fill="#ffaee4" d="M 345.5,307.5 C 343.168,309.096 340.501,310.262 337.5,311C 330.167,311.667 322.833,311.667 315.5,311C 314.944,310.617 314.611,310.117 314.5,309.5C 324.993,311.211 335.327,310.544 345.5,307.5 Z"/></g>
<g><path style="opacity:1" fill="#ffbde9" d="M 291.5,306.5 C 292.931,307.903 294.098,309.569 295,311.5C 295.49,312.793 295.657,314.127 295.5,315.5C 293.416,312.947 292.083,309.947 291.5,306.5 Z"/></g>
<g><path style="opacity:1" fill="#ffbde9" d="M 105.5,310.5 C 107.065,312.509 108.065,314.843 108.5,317.5C 106.166,315.824 105.166,313.491 105.5,310.5 Z"/></g>
<g><path style="opacity:1" fill="#ffc6ec" d="M 139.5,298.5 C 139.302,312.666 139.636,326.999 140.5,341.5C 140.167,343.167 139.833,344.833 139.5,346.5C 138.893,346.376 138.56,346.043 138.5,345.5C 139.124,345.083 139.457,344.416 139.5,343.5C 138.041,336.584 137.375,329.584 137.5,322.5C 137.451,314.408 138.117,306.408 139.5,298.5 Z"/></g>
<g><path style="opacity:1" fill="#ff70cf" d="M 363.5,298.5 C 363.5,300.833 363.5,303.167 363.5,305.5C 364.793,315.295 364.793,324.962 363.5,334.5C 362.949,322.326 362.949,310.326 363.5,298.5 Z"/></g>
<g><path style="opacity:1" fill="#ffc7ec" d="M 363.5,305.5 C 364.117,305.611 364.617,305.944 365,306.5C 365.667,316.167 365.667,325.833 365,335.5C 364.768,336.737 364.268,337.737 363.5,338.5C 363.5,337.5 363.5,336.5 363.5,335.5C 363.5,335.167 363.5,334.833 363.5,334.5C 364.793,324.962 364.793,315.295 363.5,305.5 Z"/></g>
<g><path style="opacity:1" fill="#ffbce9" d="M 153.5,306.5 C 151.523,317.116 150.856,328.116 151.5,339.5C 149.264,328.364 148.931,317.031 150.5,305.5C 151.791,305.263 152.791,305.596 153.5,306.5 Z"/></g>
<g><path style="opacity:1" fill="#ff96dc" d="M 381.5,319.5 C 381.245,321.967 380.245,323.967 378.5,325.5C 378.755,323.033 379.755,321.033 381.5,319.5 Z"/></g>
<g><path style="opacity:1" fill="#ffa1e0" d="M 296.5,319.5 C 298.03,322.695 298.696,326.195 298.5,330C 298.333,332.5 298.167,335 298,337.5C 297.722,338.416 297.222,339.082 296.5,339.5C 297.833,332.833 297.833,326.167 296.5,319.5 Z"/></g>
<g><path style="opacity:1" fill="#ffa6e2" d="M 195.5,315.5 C 194.608,322.791 194.274,330.124 194.5,337.5C 193.835,334.016 193.501,330.349 193.5,326.5C 193.511,322.435 194.178,318.768 195.5,315.5 Z"/></g>
<g><path style="opacity:1" fill="#ff7dd4" d="M 307.5,315.5 C 308.117,315.611 308.617,315.944 309,316.5C 309.82,323.014 309.653,329.347 308.5,335.5C 308.756,328.776 308.423,322.109 307.5,315.5 Z"/></g>
<g><path style="opacity:1" fill="#fffafd" d="M 256.5,337.5 C 263.824,348.505 273.491,356.505 285.5,361.5C 276.118,372.882 265.452,382.882 253.5,391.5C 252.277,392.614 250.944,392.781 249.5,392C 237.695,383.583 227.361,373.583 218.5,362C 225.309,357.422 231.976,352.589 238.5,347.5C 242.545,343.625 245.879,339.291 248.5,334.5C 249.85,333.517 250.85,332.184 251.5,330.5C 252.893,333.196 254.56,335.529 256.5,337.5 Z"/></g>
<g><path style="opacity:1" fill="#ffc2ea" d="M 256.5,337.5 C 254.56,335.529 252.893,333.196 251.5,330.5C 250.85,332.184 249.85,333.517 248.5,334.5C 249.15,332.565 249.483,330.565 249.5,328.5C 250.822,328.33 251.989,328.663 253,329.5C 254.401,332.067 255.568,334.733 256.5,337.5 Z"/></g>
<g><path style="opacity:1" fill="#ff8cd9" d="M 205.5,321.5 C 205.36,327.536 205.693,333.536 206.5,339.5C 205.778,339.082 205.278,338.416 205,337.5C 204.183,331.984 204.349,326.65 205.5,321.5 Z"/></g>
<g><path style="opacity:1" fill="#ff69cb" d="M 363.5,335.5 C 363.5,336.5 363.5,337.5 363.5,338.5C 363.337,340.857 363.503,343.19 364,345.5C 365.517,343.76 367.017,342.094 368.5,340.5C 368.157,344.474 365.991,347.14 362,348.5C 361.889,343.997 362.389,339.664 363.5,335.5 Z"/></g>
<g><path style="opacity:1" fill="#ffc2eb" d="M 382.5,340.5 C 381.25,344.408 378.917,347.408 375.5,349.5C 377.482,346.19 379.815,343.19 382.5,340.5 Z"/></g>
<g><path style="opacity:1" fill="#ffb8e7" d="M 151.5,341.5 C 152.222,341.918 152.722,342.584 153,343.5C 153.497,346.146 153.664,348.813 153.5,351.5C 168.324,353.331 183.324,353.997 198.5,353.5C 198.5,352.5 198.5,351.5 198.5,350.5C 199.434,351.568 199.768,352.901 199.5,354.5C 183.72,356.061 168.053,355.394 152.5,352.5C 152.448,348.802 152.114,345.135 151.5,341.5 Z"/></g>
<g><path style="opacity:1" fill="#fface3" d="M 304.5,353.5 C 315.833,353.5 327.167,353.5 338.5,353.5C 332.199,354.665 325.699,355.332 319,355.5C 313.921,355.595 309.088,354.928 304.5,353.5 Z"/></g>
<g><path style="opacity:1" fill="#ffc1ea" d="M 375.5,350.5 C 373.584,354.088 370.917,357.088 367.5,359.5C 369.482,355.854 372.149,352.854 375.5,350.5 Z"/></g>
<g><path style="opacity:1" fill="#ff67cc" d="M 303.5,365.5 C 303.5,365.167 303.5,364.833 303.5,364.5C 314.5,364.5 325.5,364.5 336.5,364.5C 331.084,366.029 325.417,366.695 319.5,366.5C 314.14,366.388 308.807,366.055 303.5,365.5 Z"/></g>
<g><path style="opacity:1" fill="#fff9fd" d="M 206.5,365.5 C 214.489,376.488 223.822,386.155 234.5,394.5C 233.848,395.725 232.681,396.392 231,396.5C 227.196,395.795 223.363,395.462 219.5,395.5C 214.506,394.339 209.506,393.172 204.5,392C 202.03,390.979 199.696,389.812 197.5,388.5C 194.538,385.641 190.871,383.974 186.5,383.5C 180.825,381.328 175.491,378.495 170.5,375C 166.538,372.86 163.204,370.027 160.5,366.5C 175.654,366.777 190.988,366.443 206.5,365.5 Z"/></g>
<g><path style="opacity:1" fill="#ff93db" d="M 206.5,365.5 C 190.988,366.443 175.654,366.777 160.5,366.5C 159.624,366.631 158.957,366.298 158.5,365.5C 161.167,365.167 163.833,364.833 166.5,364.5C 180.001,365.345 193.334,365.678 206.5,365.5 Z"/></g>
<g><path style="opacity:1" fill="#ffb6e7" d="M 303.5,364.5 C 303.5,364.833 303.5,365.167 303.5,365.5C 300.763,365.401 298.096,365.735 295.5,366.5C 295.611,365.883 295.944,365.383 296.5,365C 298.81,364.503 301.143,364.337 303.5,364.5 Z"/></g>
<g><path style="opacity:1" fill="#fff9fd" d="M 336.5,364.5 C 339.247,364.187 341.914,364.52 344.5,365.5C 339.27,368.939 334.27,372.606 329.5,376.5C 326.249,377.454 323.582,379.12 321.5,381.5C 313.654,385.847 305.321,389.347 296.5,392C 290.923,393.695 285.256,394.862 279.5,395.5C 275.854,396.283 272.188,396.45 268.5,396C 270.756,393.917 272.756,391.75 274.5,389.5C 282.181,382.484 289.181,374.818 295.5,366.5C 298.096,365.735 300.763,365.401 303.5,365.5C 308.807,366.055 314.14,366.388 319.5,366.5C 325.417,366.695 331.084,366.029 336.5,364.5 Z"/></g>
<g><path style="opacity:1" fill="#ffade4" d="M 329.5,376.5 C 327.368,378.955 324.701,380.621 321.5,381.5C 323.582,379.12 326.249,377.454 329.5,376.5 Z"/></g>
<g><path style="opacity:1" fill="#ffccee" d="M 186.5,383.5 C 190.871,383.974 194.538,385.641 197.5,388.5C 193.142,388.092 189.475,386.425 186.5,383.5 Z"/></g>
<g><path style="opacity:1" fill="#ffbee9" d="M 336.5,385.5 C 334.853,387.326 332.853,388.66 330.5,389.5C 331.802,387.178 333.802,385.845 336.5,385.5 Z"/></g>
<g><path style="opacity:1" fill="#ff66c9" d="M 175.5,390.5 C 177.547,390.511 179.547,390.844 181.5,391.5C 185.986,394.184 190.319,396.851 194.5,399.5C 189.886,397.572 185.219,395.739 180.5,394C 178.767,392.811 177.1,391.644 175.5,390.5 Z"/></g>
<g><path style="opacity:1" fill="#ffd7f1" d="M 274.5,389.5 C 272.756,391.75 270.756,393.917 268.5,396C 272.188,396.45 275.854,396.283 279.5,395.5C 277.485,396.924 275.152,397.59 272.5,397.5C 269.941,397.802 267.607,397.468 265.5,396.5C 268.19,393.815 271.19,391.482 274.5,389.5 Z"/></g>
<g><path style="opacity:1" fill="#ffccee" d="M 234.5,394.5 C 236.533,394.949 238.2,395.949 239.5,397.5C 238.5,397.833 237.5,398.167 236.5,398.5C 230.606,398.002 224.939,397.002 219.5,395.5C 223.363,395.462 227.196,395.795 231,396.5C 232.681,396.392 233.848,395.725 234.5,394.5 Z"/></g>
<g><path style="opacity:1" fill="#ff83d6" d="M 265.5,396.5 C 267.607,397.468 269.941,397.802 272.5,397.5C 269.35,399.125 266.017,399.458 262.5,398.5C 263.357,397.575 264.357,396.908 265.5,396.5 Z"/></g>
<g><path style="opacity:1" fill="#ffc2ea" d="M 296.5,403.5 C 294.341,405.34 291.675,406.507 288.5,407C 284.187,407.735 279.853,408.235 275.5,408.5C 282.453,407.116 289.453,405.449 296.5,403.5 Z"/></g>
<g><path style="opacity:1" fill="#ffa5e1" d="M 230.5,408.5 C 243.81,409.774 257.143,409.774 270.5,408.5C 270.082,409.222 269.416,409.722 268.5,410C 256.167,410.667 243.833,410.667 231.5,410C 230.944,409.617 230.611,409.117 230.5,408.5 Z"/></g>
<g><path style="opacity:1" fill="#ff29b8" d="M 364.5,423.5 C 373.121,422.932 375.121,426.099 370.5,433C 368.913,433.862 367.246,434.529 365.5,435C 372.775,435.708 373.275,437.874 367,441.5C 366.602,446.645 368.769,447.812 373.5,445C 375.79,442.921 377.457,440.421 378.5,437.5C 379.972,444.241 377.305,448.741 370.5,451C 359.735,452.247 357.069,448.247 362.5,439C 359.813,436.255 357.479,433.255 355.5,430C 356.137,428.287 357.137,428.121 358.5,429.5C 360.215,427.118 362.215,425.118 364.5,423.5 Z"/></g>
<g><path style="opacity:1" fill="#ffddf4" d="M 365.5,427.5 C 368.101,428.922 367.934,430.256 365,431.5C 364.5,431.167 364,430.833 363.5,430.5C 364.193,429.482 364.859,428.482 365.5,427.5 Z"/></g>
<g><path style="opacity:1" fill="#ff28b8" d="M 121.5,428.5 C 127.411,429.792 133.411,430.625 139.5,431C 141.394,432.079 141.727,433.413 140.5,435C 144.364,434.007 147.864,434.84 151,437.5C 151.667,438.833 151.667,440.167 151,441.5C 147,446.167 143,450.833 139,455.5C 138.591,460.973 136.258,462.306 132,459.5C 131.333,457.5 131.333,455.5 132,453.5C 136.022,448.979 139.856,444.312 143.5,439.5C 140.641,438.401 137.974,438.901 135.5,441C 131.797,444.367 128.464,448.034 125.5,452C 122.642,452.409 120.309,451.409 118.5,449C 122.8,443.699 127.466,438.699 132.5,434C 130.5,433.333 128.5,433.333 126.5,434C 125.946,438.253 123.946,439.253 120.5,437C 117.815,433.883 118.148,431.05 121.5,428.5 Z"/></g>
<g><path style="opacity:1" fill="#ff25b8" d="M 334.5,438.5 C 345.26,436.769 351.26,441.269 352.5,452C 352.573,456.858 350.573,460.525 346.5,463C 343.447,463.179 340.447,463.679 337.5,464.5C 334.381,468.263 330.381,469.763 325.5,469C 322.833,466.333 322.833,463.667 325.5,461C 327.65,459.589 329.984,458.755 332.5,458.5C 332.334,454.486 332.501,450.486 333,446.5C 334.584,445.139 336.418,444.472 338.5,444.5C 338.5,449.5 338.5,454.5 338.5,459.5C 340.591,459.682 342.591,459.348 344.5,458.5C 346.127,453.64 345.461,449.14 342.5,445C 333.168,441.411 328.668,444.578 329,454.5C 325.259,457.045 323.092,455.879 322.5,451C 324.636,445.031 328.636,440.864 334.5,438.5 Z"/></g>
<g><path style="opacity:1" fill="#ff30ba" d="M 178.5,439.5 C 182.041,440.759 185.708,441.759 189.5,442.5C 187.783,447.092 185.116,447.592 181.5,444C 179.866,443.506 178.199,443.34 176.5,443.5C 176.527,441.801 177.194,440.467 178.5,439.5 Z"/></g>
<g><path style="opacity:1" fill="#ff22b7" d="M 172.5,447.5 C 175.518,447.335 178.518,447.502 181.5,448C 183.444,450.153 183.944,452.653 183,455.5C 181.961,457.746 180.794,459.913 179.5,462C 180.623,463.044 181.956,463.71 183.5,464C 184.833,464.667 184.833,465.333 183.5,466C 181.623,466.576 179.789,466.409 178,465.5C 176.287,468.264 174.12,470.597 171.5,472.5C 169.337,472.255 167.67,471.255 166.5,469.5C 167.833,467.5 169.167,465.5 170.5,463.5C 169.833,463.167 169.167,462.833 168.5,462.5C 165.04,464.628 161.374,466.294 157.5,467.5C 149.323,466.873 146.99,463.04 150.5,456C 152.366,455.015 154.366,454.515 156.5,454.5C 159.186,455.012 161.853,455.179 164.5,455C 167.062,452.267 169.729,449.767 172.5,447.5 Z"/></g>
<g><path style="opacity:1" fill="#ff29b8" d="M 306.5,448.5 C 308.527,448.338 310.527,448.505 312.5,449C 313.126,449.75 313.626,450.584 314,451.5C 314.5,456.012 314.333,460.512 313.5,465C 313.989,468.395 314.823,471.562 316,474.5C 313.333,478.5 310.667,478.5 308,474.5C 306.832,467.535 306.332,460.535 306.5,453.5C 304.005,455.149 302.505,457.483 302,460.5C 301.667,465.833 301.333,471.167 301,476.5C 298.993,477.669 296.827,478.335 294.5,478.5C 294.666,471.492 294.5,464.492 294,457.5C 290.488,459.036 289.654,461.536 291.5,465C 289.187,468.037 286.687,468.204 284,465.5C 283.333,463.833 283.333,462.167 284,460.5C 288.398,457.709 292.564,454.542 296.5,451C 298.134,450.506 299.801,450.34 301.5,450.5C 301.351,451.552 301.517,452.552 302,453.5C 303.366,451.638 304.866,449.972 306.5,448.5 Z"/></g>
<g><path style="opacity:1" fill="#ffebf9" d="M 175.5,451.5 C 176.376,451.369 177.043,451.702 177.5,452.5C 176.14,455.228 174.307,457.561 172,459.5C 171.5,459.167 171,458.833 170.5,458.5C 171.804,455.87 173.47,453.537 175.5,451.5 Z"/></g>
<g><path style="opacity:1" fill="#ff2ab8" d="M 197.5,452.5 C 210.125,452.121 214.125,457.788 209.5,469.5C 211.216,469.997 212.883,470.331 214.5,470.5C 213.91,471.799 212.91,472.632 211.5,473C 206.887,475.215 202.053,477.049 197,478.5C 189.546,478.385 186.546,474.719 188,467.5C 189.667,464.833 191.333,464.833 193,467.5C 192.688,474.881 195.188,476.214 200.5,471.5C 193.736,468.64 191.236,463.64 193,456.5C 194.397,454.93 195.897,453.596 197.5,452.5 Z"/></g>
<g><path style="opacity:1" fill="#ff32ba" d="M 272.5,454.5 C 277.096,454.094 280.096,456.094 281.5,460.5C 281.471,462.029 280.804,463.196 279.5,464C 276.956,465.092 274.289,465.759 271.5,466C 272.563,467.188 273.897,467.688 275.5,467.5C 275.649,468.552 275.483,469.552 275,470.5C 273.215,471.24 271.382,471.907 269.5,472.5C 267.95,475.793 268.95,477.793 272.5,478.5C 276.222,478.107 279.222,476.441 281.5,473.5C 282.583,474.365 282.749,475.365 282,476.5C 276.344,482.541 269.844,483.707 262.5,480C 258.888,473.915 260.555,469.915 267.5,468C 266.667,467.167 265.833,466.333 265,465.5C 264.73,462.776 264.23,460.109 263.5,457.5C 264.782,454.867 266.116,454.867 267.5,457.5C 269.396,456.725 271.063,455.725 272.5,454.5 Z"/></g>
<g><path style="opacity:1" fill="#fffbfd" d="M 200.5,457.5 C 201.833,457.5 203.167,457.5 204.5,457.5C 204.836,461.167 204.003,464.5 202,467.5C 199.314,464.536 198.814,461.203 200.5,457.5 Z"/></g>
<g><path style="opacity:1" fill="#ff24b7" d="M 235.5,456.5 C 242.81,455.215 248.976,457.215 254,462.5C 254.895,465.466 254.395,468.133 252.5,470.5C 250.5,471.833 248.5,473.167 246.5,474.5C 247.501,477.173 249.001,479.507 251,481.5C 251.729,486.45 249.895,487.95 245.5,486C 243.47,482.235 241.637,478.402 240,474.5C 238.269,476.862 237.435,479.529 237.5,482.5C 235.076,482.808 232.743,482.474 230.5,481.5C 232.171,475.32 234.338,469.32 237,463.5C 239.292,462.092 241.459,462.259 243.5,464C 242.308,465.912 241.308,467.912 240.5,470C 246.289,470.143 247.956,467.476 245.5,462C 238.149,459.009 233.483,461.342 231.5,469C 230.101,469.595 228.768,469.428 227.5,468.5C 226.359,466.579 226.192,464.579 227,462.5C 229.322,459.605 232.155,457.605 235.5,456.5 Z"/></g>
<g><path style="opacity:1" fill="#fff5fc" d="M 156.5,459.5 C 161.508,459.356 161.674,460.356 157,462.5C 155.317,461.824 155.15,460.824 156.5,459.5 Z"/></g>
<g><path style="opacity:1" fill="#fffefe" d="M 272.5,459.5 C 273.675,459.281 274.675,459.614 275.5,460.5C 274.277,461.614 272.944,461.781 271.5,461C 272.056,460.617 272.389,460.117 272.5,459.5 Z"/></g>
<g><path style="opacity:1" fill="#ffeffa" d="M 329.5,462.5 C 332.797,462.329 333.131,462.995 330.5,464.5C 329.702,464.043 329.369,463.376 329.5,462.5 Z"/></g>
</svg>
