<svg width="36" height="52" viewBox="0 0 36 52" fill="none" xmlns="http://www.w3.org/2000/svg">
<path d="M9.92603 38.5203C11.4186 40.4368 12.7771 42.4557 13.9916 44.5622C15.0286 46.5433 15.4609 47.8867 16.2187 50.2737C16.6835 51.5926 17.1035 51.9862 18.0066 51.9862C18.9907 51.9862 19.4372 51.3166 19.7822 50.2809C20.4985 48.0267 21.0606 46.3063 21.9474 44.6807C23.6874 41.5423 25.8497 38.7534 27.9743 36.073C28.5494 35.3144 32.2681 30.895 33.9422 27.4079C33.9422 27.4079 35.9999 23.5773 35.9999 18.2276C35.9999 13.2234 33.9706 9.75269 33.9706 9.75269L28.1284 11.3291L24.5804 20.7445L23.7026 22.0428L23.5271 22.278L23.2937 22.5725L22.8839 23.0427L22.2984 23.6326L19.1389 26.2261L11.24 30.8213L9.92603 38.5203Z" fill="#34A853"/>
<path d="M1.77356 26.7641C3.70139 31.2008 7.41895 35.1009 9.93417 38.5236L23.2937 22.5787C23.2937 22.5787 21.4116 25.0588 17.9975 25.0588C14.1945 25.0588 11.1223 21.999 11.1223 18.1408C11.1223 15.4951 12.7021 13.6775 12.7021 13.6775L3.63332 16.1259L1.77356 26.7641Z" fill="#FBBC04"/>
<path d="M23.4429 0.819966C27.8799 2.26137 31.6776 5.28743 33.9747 9.74965L23.2978 22.5694C23.2978 22.5694 24.8775 20.719 24.8775 18.0896C24.8775 14.1416 21.5781 11.1922 18.0136 11.1922C14.643 11.1922 12.7072 13.6682 12.7072 13.6682V5.59192L23.4429 0.819824V0.819966Z" fill="#4285F4"/>
<path d="M4.22089 6.48442C6.87096 3.28974 11.5341 0 17.9629 0C21.082 0 23.4318 0.825057 23.4318 0.825057L12.6971 13.6753H5.09136L4.22089 6.48456V6.48442Z" fill="#1A73E8"/>
<path d="M1.77356 26.7639C1.77356 26.7639 0 23.2645 0 18.1949C0 13.4033 1.84866 9.21501 4.22086 6.48438L12.7031 13.6764L1.77356 26.7639Z" fill="#EA4335"/>
</svg>
