<svg width="40" height="40" viewBox="0 0 40 40" fill="none" xmlns="http://www.w3.org/2000/svg">
<path d="M39.1369 18.9516C38.972 18.6636 38.7509 18.4117 38.4866 18.211C38.2224 18.0103 37.9204 17.8648 37.5987 17.7833C36.171 17.4308 34.6923 17.3328 33.2305 17.4939C33.6152 15.3668 33.4795 13.1783 32.835 11.115C32.6452 10.5267 32.2437 10.0298 31.7084 9.72067C31.173 9.41159 30.5419 9.31234 29.9375 9.44219C28.4886 9.76258 27.1059 10.3305 25.8502 11.1211C24.8475 9.01082 23.3563 7.16994 21.5002 5.75109C21.0679 5.42507 20.5413 5.24872 19.9999 5.24872C19.4585 5.24872 18.9319 5.42507 18.4997 5.75109C16.6435 7.16989 15.1522 9.01078 14.1497 11.1211C12.8941 10.3306 11.5116 9.76267 10.063 9.44219C9.45851 9.31241 8.8274 9.4117 8.29199 9.7208C7.75658 10.0299 7.35502 10.5268 7.16516 11.1152C6.52069 13.1783 6.38506 15.3668 6.76984 17.4937C5.30799 17.3326 3.82918 17.4307 2.40141 17.7834C2.08025 17.8661 1.7788 18.0119 1.51471 18.2125C1.25062 18.4131 1.02919 18.6643 0.86339 18.9515C0.697589 19.2387 0.590745 19.5561 0.549114 19.8851C0.507483 20.2141 0.5319 20.5481 0.620936 20.8675C1.17375 22.8445 2.86578 26.6027 7.98609 29.5591C13.0745 32.4967 17.5714 32.5 19.9916 32.5L19.9987 32.5003H20.0012L20.0084 32.5C22.4287 32.5 26.9256 32.4967 32.0141 29.5589C37.1344 26.6027 38.8266 22.8445 39.3792 20.8675C39.4695 20.5482 39.4946 20.214 39.453 19.8848C39.4113 19.5556 39.3038 19.2382 39.1369 18.9514V18.9516ZM20.0047 7.75422C21.5067 8.87578 25 12.1919 25 18.75C25 25.3081 21.5067 28.6242 20.005 29.7455C20.0043 29.7461 20.0036 29.7467 20.0027 29.747C20.0018 29.7474 20.0009 29.7476 20 29.7476C19.9991 29.7476 19.9981 29.7474 19.9973 29.747C19.9964 29.7467 19.9957 29.7461 19.995 29.7455C18.493 28.6238 15 25.3078 15 18.75C15 12.1919 18.4933 8.87578 20.0047 7.75437V7.75422ZM3.02219 20.205C4.47494 19.8565 5.98581 19.8257 7.45156 20.1147C7.85184 21.2487 8.35765 22.3427 8.96234 23.3822C10.308 25.693 12.0709 27.734 14.1612 29.4016C12.4336 28.9661 10.7756 28.2903 9.23594 27.3938C4.88391 24.8809 3.47875 21.8044 3.02219 20.2047V20.205ZM30.7641 27.3938C29.2244 28.2903 27.5665 28.9661 25.8389 29.4016C27.9292 27.7339 29.692 25.6929 31.0377 23.3822C31.6424 22.3427 32.1483 21.2487 32.5486 20.1147C34.012 19.828 35.5196 19.8552 36.9717 20.1944C36.5212 21.8045 35.1161 24.8811 30.7639 27.3938H30.7641Z" fill="#FDB136"/>
</svg>
