<svg width="40" height="28" viewBox="0 0 40 28" fill="none" xmlns="http://www.w3.org/2000/svg">
<path d="M39.1369 13.9517C38.972 13.6637 38.7509 13.4118 38.4866 13.2111C38.2224 13.0104 37.9204 12.8649 37.5988 12.7834C36.171 12.4308 34.6923 12.3328 33.2305 12.4939C33.6152 10.3669 33.4795 8.17836 32.835 6.11515C32.6451 5.5269 32.2435 5.0301 31.7081 4.72104C31.1728 4.41198 30.5418 4.31267 29.9373 4.44234C28.4886 4.76267 27.106 5.33058 25.8503 6.12109C24.8477 4.01059 23.3563 2.16958 21.4998 0.750773C21.0678 0.424842 20.5412 0.248535 20 0.248535C19.4588 0.248535 18.9323 0.424842 18.5002 0.750773C16.6437 2.16958 15.1523 4.01059 14.1497 6.12109C12.8941 5.33064 11.5115 4.76273 10.0628 4.44234C9.45835 4.31241 8.82718 4.41164 8.29173 4.72076C7.75629 5.02988 7.35475 5.52687 7.165 6.1153C6.52054 8.17847 6.38491 10.3669 6.76969 12.4939C5.30784 12.3328 3.82903 12.4308 2.40125 12.7836C2.08009 12.8662 1.77864 13.0121 1.51454 13.2126C1.25045 13.4132 1.02901 13.6644 0.863199 13.9516C0.697385 14.2388 0.590525 14.5562 0.548874 14.8852C0.507223 15.2142 0.531617 15.5482 0.620629 15.8676C1.1736 17.8447 2.86563 21.6028 7.98594 24.5592C13.0745 27.4969 17.5714 27.5001 19.9917 27.5001L19.9988 27.5005H20.0013L20.0083 27.5001C22.4286 27.5001 26.9255 27.4969 32.0141 24.5591C37.1344 21.6028 38.8266 17.8447 39.3794 15.8676C39.4696 15.5483 39.4947 15.2141 39.453 14.8849C39.4114 14.5557 39.3038 14.2383 39.1369 13.9516V13.9517ZM30.4572 6.88734C30.8853 8.20531 31.3041 10.563 30.41 13.6009C30.3911 13.6525 30.3756 13.7052 30.3636 13.7587C29.9955 14.9359 29.4954 16.0677 28.8727 17.1323C28.1159 18.436 27.2037 19.643 26.1561 20.7269C26.9478 18.862 27.5 16.5566 27.5 13.7501C27.5112 11.9754 27.2645 10.2084 26.7675 8.50452C27.8819 7.73305 29.1347 7.18394 30.4572 6.88734V6.88734ZM20.0044 2.75437C21.5064 3.87546 25 7.19124 25 13.7501C25 20.3973 21.4544 23.6864 20 24.7559C18.5456 23.6864 15 20.3973 15 13.7501C15 7.19124 18.4936 3.87546 20.0044 2.75437V2.75437ZM9.54266 6.88765C10.8652 7.18401 12.118 7.73302 13.2323 8.50452C12.7354 10.2084 12.4888 11.9754 12.5 13.7501C12.5 16.5564 13.0522 18.862 13.8438 20.7269C12.7962 19.643 11.8841 18.436 11.1273 17.1323C10.5039 16.0666 10.0034 14.9336 9.63516 13.7551C9.62395 13.7058 9.6097 13.6571 9.5925 13.6095C8.69516 10.5673 9.11438 8.20655 9.5425 6.88765H9.54266ZM3.02219 15.2051C4.47496 14.8568 5.9858 14.8259 7.45157 15.1148C7.85184 16.2489 8.35766 17.3428 8.96235 18.3823C10.3081 20.6931 12.0709 22.7341 14.1613 24.4017C12.4336 23.9663 10.7756 23.2904 9.23594 22.3939C4.88391 19.8811 3.4786 16.8045 3.02219 15.2048V15.2051ZM30.7641 22.3939C29.2244 23.2904 27.5665 23.9663 25.8389 24.4017C27.9292 22.7341 29.692 20.6931 31.0377 18.3823C31.6424 17.3428 32.1482 16.2489 32.5484 15.1148C34.012 14.8282 35.5196 14.8553 36.9719 15.1945C36.5214 16.8047 35.1161 19.8812 30.7641 22.3939V22.3939Z" fill="#FF00B3"/>
</svg>
