<svg width="40" height="40" viewBox="0 0 40 40" fill="none" xmlns="http://www.w3.org/2000/svg">
<path opacity="0.2" d="M19.9999 31.2499C17.4999 31.2499 13.3662 31.2218 8.61087 28.4763C3.85524 25.7305 2.31649 22.2908 1.8243 20.5302C1.78015 20.371 1.76815 20.2047 1.78901 20.0408C1.80986 19.877 1.86316 19.7189 1.94579 19.5759C2.02841 19.4329 2.13871 19.3077 2.27023 19.2078C2.40175 19.1079 2.55187 19.0352 2.7118 18.9939C3.86524 18.6983 5.8568 18.4311 8.41899 19.0389C7.37962 15.563 7.9104 12.8658 8.35415 11.5002C8.45045 11.206 8.65233 10.9579 8.9208 10.8038C9.18927 10.6498 9.5053 10.6006 9.8079 10.6658C11.5973 11.0725 13.2709 11.8807 14.702 13.0294H14.7018C14.0537 14.8662 13.7316 16.8022 13.7499 18.7499C13.7499 27.8408 19.9999 31.2499 19.9999 31.2499ZM37.2881 18.9939C36.1348 18.6983 34.1431 18.4311 31.5809 19.0389C32.6202 15.563 32.0895 12.8658 31.6457 11.5002C31.5494 11.206 31.3475 10.9579 31.0791 10.8038C30.8106 10.6498 30.4946 10.6006 30.192 10.6658C28.4025 11.0725 26.729 11.8807 25.2979 13.0294H25.2981C25.9461 14.8662 26.2683 16.8022 26.2499 18.7499C26.2499 27.8408 19.9999 31.2499 19.9999 31.2499C22.4999 31.2499 26.6337 31.2218 31.389 28.4763C36.1446 25.7305 37.6834 22.2908 38.1756 20.5302C38.2197 20.371 38.2317 20.2047 38.2109 20.0408C38.19 19.877 38.1367 19.7189 38.0541 19.5759C37.9714 19.4329 37.8612 19.3077 37.7296 19.2078C37.5981 19.1079 37.448 19.0352 37.2881 18.9939V18.9939Z" fill="#4ECB71"/>
<path d="M39.1369 18.9517C38.9721 18.6637 38.751 18.4118 38.4867 18.2111C38.2225 18.0104 37.9205 17.8649 37.5988 17.7834C36.1711 17.4309 34.6923 17.333 33.2305 17.4941C33.6153 15.367 33.4796 13.1784 32.8351 11.1151C32.6453 10.5268 32.2438 10.0299 31.7084 9.72082C31.173 9.41173 30.542 9.31249 29.9376 9.44234C28.4887 9.76266 27.1061 10.3306 25.8504 11.1211C24.8478 9.01057 23.3564 7.16956 21.4999 5.75077C21.0678 5.42484 20.5413 5.24854 20.0001 5.24854C19.4588 5.24854 18.9323 5.42484 18.5002 5.75077C16.6438 7.16958 15.1524 9.01059 14.1498 11.1211C12.8941 10.3306 11.5116 9.76272 10.0629 9.44234C9.45842 9.31259 8.82733 9.4119 8.29193 9.721C7.75653 10.0301 7.35496 10.527 7.16506 11.1153C6.5206 13.1785 6.38496 15.3669 6.76975 17.4939C5.3079 17.3328 3.82909 17.4308 2.40131 17.7836C2.08016 17.8662 1.77871 18.0121 1.51462 18.2127C1.25053 18.4132 1.0291 18.6645 0.863298 18.9516C0.697497 19.2388 0.590654 19.5562 0.549022 19.8852C0.507391 20.2142 0.531808 20.5482 0.620845 20.8676C1.17366 22.8447 2.86569 26.6028 7.986 29.5592C13.0746 32.4969 17.5715 32.5001 19.9916 32.5001L19.9988 32.5005H20.0013L20.0085 32.5001C22.4288 32.5001 26.9257 32.4969 32.0141 29.5591C37.1344 26.6028 38.8266 22.8447 39.3793 20.8676C39.4696 20.5484 39.4947 20.2141 39.453 19.8849C39.4114 19.5558 39.3039 19.2383 39.1369 18.9516V18.9517ZM30.4572 11.8873C30.8852 13.2051 31.3041 15.5625 30.4104 18.6003C30.3913 18.6522 30.3757 18.7053 30.3637 18.7592C29.9956 19.9362 29.4954 21.0678 28.8727 22.1323C28.116 23.4361 27.2038 24.6431 26.1562 25.727C26.9479 23.862 27.5001 21.5564 27.5001 18.7501C27.5113 16.9754 27.2645 15.2084 26.7676 13.5045C27.8819 12.7331 29.1347 12.1839 30.4572 11.8873V11.8873ZM20.0044 7.75437C21.5065 8.87546 25.0001 12.1912 25.0001 18.7501C25.0001 25.3973 21.4544 28.6864 20.0001 29.7559C18.5457 28.6864 15.0001 25.3973 15.0001 18.7501C15.0001 12.1912 18.4937 8.87546 20.0044 7.75437V7.75437ZM9.54272 11.8876C10.8653 12.184 12.1181 12.733 13.2324 13.5045C12.7355 15.2084 12.4888 16.9754 12.5001 18.7501C12.5001 21.5564 13.0523 23.862 13.8438 25.727C12.7962 24.6431 11.8841 23.436 11.1274 22.1323C10.504 21.0666 10.0034 19.9336 9.63522 18.7551C9.62397 18.7058 9.60973 18.6572 9.59256 18.6095C8.69522 15.5673 9.11444 13.2066 9.54272 11.8876V11.8876ZM3.02225 20.2051C4.47501 19.8567 5.98587 19.8259 7.45163 20.1148C7.8519 21.2489 8.35771 22.3428 8.96241 23.3823C10.3081 25.6931 12.0709 27.7341 14.1613 29.4017C12.4337 28.9663 10.7757 28.2904 9.236 27.3939C4.88397 24.8811 3.47881 21.8045 3.02225 20.2048V20.2051ZM30.7641 27.3939C29.2245 28.2904 27.5666 28.9663 25.839 29.4017C27.9293 27.7341 29.6921 25.6931 31.0377 23.3823C31.6425 22.3428 32.1483 21.2489 32.5487 20.1148C34.0121 19.8282 35.5196 19.8554 36.9718 20.1945C36.5213 21.8047 35.1162 24.8812 30.764 27.3939H30.7641Z" fill="#4ECB71"/>
</svg>
