<svg width="40" height="40" viewBox="0 0 40 40" fill="none" xmlns="http://www.w3.org/2000/svg">
<path d="M20 0C8.955 0 0 8.29 0 18.5183C0.0245954 21.3275 0.706363 24.0919 1.99075 26.5903C3.27514 29.0888 5.12649 31.2519 7.39667 32.9067L7.44833 32.9417V40L14.2617 36.2633C15.98 36.755 17.9533 37.0367 19.9933 37.0367H20C31.045 37.0367 40 28.745 40 18.52C40 8.295 31.045 0 20 0ZM21.985 24.9383L16.8933 19.5L6.955 24.9333L17.8867 13.3333L23.105 18.765L32.92 13.3333L21.985 24.9383Z" fill="white"/>
</svg>
