<svg width="52" height="52" viewBox="0 0 52 52" fill="none" xmlns="http://www.w3.org/2000/svg">
<path fill-rule="evenodd" clip-rule="evenodd" d="M37.7325 31.1611C37.0868 30.8383 33.9213 29.2826 33.332 29.0659C32.7427 28.8514 32.3137 28.7453 31.8825 29.3909C31.4535 30.0323 30.2207 31.4839 29.8458 31.9129C29.4688 32.3441 29.094 32.3961 28.4505 32.0754C27.807 31.7504 25.7313 31.0723 23.2722 28.8796C21.359 27.1723 20.0655 25.0641 19.6907 24.4184C19.3158 23.7749 19.6495 23.4261 19.9723 23.1054C20.2627 22.8173 20.6158 22.3536 20.9387 21.9788C21.2615 21.6018 21.3677 21.3331 21.5822 20.9019C21.7988 20.4729 21.6905 20.0981 21.528 19.7753C21.3677 19.4524 20.0807 16.2826 19.5433 14.9934C19.0212 13.7389 18.4903 13.9101 18.096 13.8884C17.719 13.8711 17.29 13.8668 16.861 13.8668C16.432 13.8668 15.7343 14.0271 15.145 14.6728C14.5535 15.3163 12.8917 16.8741 12.8917 20.0439C12.8917 23.2116 15.197 26.2731 15.5198 26.7043C15.8427 27.1333 20.059 33.6376 26.5178 36.4261C28.0562 37.0891 29.2543 37.4856 30.1882 37.7803C31.7308 38.2721 33.1348 38.2028 34.2442 38.0359C35.4792 37.8518 38.0532 36.4781 38.5905 34.9744C39.1257 33.4708 39.1257 32.1816 38.9653 31.9129C38.805 31.6443 38.376 31.4839 37.7303 31.1611H37.7325ZM25.9848 47.2009H25.9762C22.1399 47.2016 18.3741 46.1704 15.0735 44.2153L14.2935 43.7516L6.18583 45.8793L8.35033 37.9753L7.84117 37.1649C5.69647 33.751 4.56147 29.7999 4.56733 25.7683C4.57167 13.9599 14.1787 4.35292 25.9935 4.35292C31.7135 4.35292 37.0912 6.58459 41.1342 10.6319C43.1283 12.6178 44.7089 14.9795 45.7844 17.5802C46.86 20.1809 47.4091 22.9691 47.4002 25.7834C47.3958 37.5918 37.7888 47.2009 25.9848 47.2009ZM44.2108 7.55742C41.8236 5.15442 38.9832 3.24909 35.8542 1.95182C32.7252 0.65456 29.3699 -0.00883187 25.9827 8.87847e-05C11.7823 8.87847e-05 0.221 11.5593 0.216667 25.7661C0.2145 30.3074 1.39967 34.7404 3.65517 38.6469L0 52.0001L13.6587 48.4164C17.4371 50.475 21.6712 51.5537 25.974 51.5538H25.9848C40.1852 51.5538 51.7465 39.9946 51.7508 25.7856C51.7613 22.3997 51.1003 19.0453 49.8061 15.9165C48.5119 12.7877 46.6101 9.94654 44.2108 7.55742Z" fill="#4ECB71"/>
</svg>
