<svg width="41" height="40" viewBox="0 0 41 40" fill="none" xmlns="http://www.w3.org/2000/svg">
<g clip-path="url(#clip0_287:36)">
<path d="M34.4527 5.81512C32.6189 3.96431 30.435 2.49698 28.0284 1.49864C25.6219 0.500288 23.0406 -0.00911068 20.4352 0.000123326C9.51769 0.000123326 0.620195 8.89512 0.610195 19.8151C0.610195 23.3126 1.5252 26.7151 3.2527 29.7276L0.450195 40.0001L10.9602 37.2451C13.8677 38.8274 17.125 39.6568 20.4352 39.6576H20.4452C31.3652 39.6576 40.2602 30.7626 40.2702 19.8326C40.2727 17.2277 39.7597 14.6481 38.7609 12.2423C37.762 9.83655 36.297 7.6522 34.4502 5.81512H34.4527ZM20.4352 36.3026C17.4827 36.3036 14.5845 35.5091 12.0452 34.0026L11.4452 33.6426L5.2102 35.2776L6.8752 29.1951L6.4852 28.5676C4.83471 25.9434 3.96181 22.9052 3.9677 19.8051C3.9677 10.7401 11.3602 3.34512 20.4452 3.34512C22.6095 3.34124 24.7533 3.76581 26.7527 4.59435C28.7522 5.42289 30.5679 6.63902 32.0952 8.17262C33.6278 9.70025 34.8427 11.5162 35.67 13.5157C36.4973 15.5152 36.9205 17.6587 36.9152 19.8226C36.9052 28.9201 29.5127 36.3026 20.4352 36.3026V36.3026ZM29.4727 23.9676C28.9802 23.7201 26.5477 22.5226 26.0902 22.3526C25.6352 22.1901 25.3027 22.1051 24.9777 22.6001C24.6452 23.0926 23.6952 24.2151 23.4102 24.5376C23.1252 24.8701 22.8302 24.9076 22.3352 24.6626C21.8427 24.4126 20.2452 23.8926 18.3552 22.2001C16.8802 20.8876 15.8927 19.2626 15.5977 18.7701C15.3127 18.2751 15.5702 18.0101 15.8177 17.7626C16.0352 17.5426 16.3102 17.1826 16.5577 16.8976C16.8077 16.6126 16.8902 16.4026 17.0527 16.0726C17.2152 15.7376 17.1377 15.4526 17.0152 15.2051C16.8902 14.9576 15.9027 12.5151 15.4852 11.5301C15.0852 10.5576 14.6777 10.6926 14.3727 10.6801C14.0877 10.6626 13.7552 10.6626 13.4227 10.6626C13.1716 10.6689 12.9245 10.7269 12.6969 10.8332C12.4693 10.9395 12.2662 11.0916 12.1002 11.2801C11.6452 11.7751 10.3727 12.9726 10.3727 15.4151C10.3727 17.8576 12.1477 20.2051 12.3977 20.5376C12.6427 20.8701 15.8827 25.8676 20.8552 28.0176C22.0302 28.5301 22.9552 28.8326 23.6777 29.0626C24.8652 29.4426 25.9377 29.3851 26.7927 29.2626C27.7427 29.1176 29.7202 28.0626 30.1377 26.9051C30.5477 25.7451 30.5477 24.7551 30.4227 24.5476C30.3002 24.3376 29.9677 24.2151 29.4727 23.9676V23.9676Z" fill="white"/>
</g>
<defs>
<clipPath id="clip0_287:36">
<rect width="40" height="40" fill="white" transform="translate(0.450195)"/>
</clipPath>
</defs>
</svg>
